<mxfile host="app.diagrams.net" agent="Mozilla/5.0 (Windows NT 10.0; Win64; x64) AppleWebKit/537.36 (KHTML, like Gecko) Chrome/136.0.0.0 Safari/537.36" version="27.0.6">
  <diagram name="Page-1" id="aqvxyd7-O1CkS6ZY6KTF">
    <mxGraphModel dx="2962" dy="1583" grid="0" gridSize="10" guides="1" tooltips="1" connect="1" arrows="1" fold="1" page="1" pageScale="1" pageWidth="1169" pageHeight="827" math="0" shadow="0">
      <root>
        <mxCell id="0" />
        <mxCell id="1" parent="0" />
        <mxCell id="bxJik_AMvIZyw83LSy6p-10" value="Mngr_Home_Scr" style="swimlane;whiteSpace=wrap;html=1;fillColor=#f8cecc;strokeColor=#b85450;startSize=23;" parent="1" vertex="1">
          <mxGeometry x="368" y="277" width="182" height="230" as="geometry" />
        </mxCell>
        <mxCell id="bxJik_AMvIZyw83LSy6p-11" value="+ TenApChangeButton(): void" style="text;strokeColor=light-dark(#000000,#512D2B);fillColor=default;align=left;verticalAlign=top;spacingLeft=4;spacingRight=4;overflow=hidden;rotatable=0;points=[[0,0.5],[1,0.5]];portConstraint=eastwest;whiteSpace=wrap;html=1;" parent="bxJik_AMvIZyw83LSy6p-10" vertex="1">
          <mxGeometry y="23" width="182" height="26" as="geometry" />
        </mxCell>
        <mxCell id="bxJik_AMvIZyw83LSy6p-12" value="+ UploadReceiptButton(): void" style="text;strokeColor=light-dark(#000000,#512D2B);fillColor=default;align=left;verticalAlign=top;spacingLeft=4;spacingRight=4;overflow=hidden;rotatable=0;points=[[0,0.5],[1,0.5]];portConstraint=eastwest;whiteSpace=wrap;html=1;" parent="bxJik_AMvIZyw83LSy6p-10" vertex="1">
          <mxGeometry y="49" width="182" height="26" as="geometry" />
        </mxCell>
        <mxCell id="bxJik_AMvIZyw83LSy6p-13" value="+ display(): void" style="text;strokeColor=light-dark(#000000,#512D2B);fillColor=default;align=left;verticalAlign=top;spacingLeft=4;spacingRight=4;overflow=hidden;rotatable=0;points=[[0,0.5],[1,0.5]];portConstraint=eastwest;whiteSpace=wrap;html=1;" parent="bxJik_AMvIZyw83LSy6p-10" vertex="1">
          <mxGeometry y="75" width="182" height="26" as="geometry" />
        </mxCell>
        <mxCell id="bxJik_AMvIZyw83LSy6p-14" value="+ GetData()" style="text;strokeColor=light-dark(#000000,#512D2B);fillColor=default;align=left;verticalAlign=top;spacingLeft=4;spacingRight=4;overflow=hidden;rotatable=0;points=[[0,0.5],[1,0.5]];portConstraint=eastwest;whiteSpace=wrap;html=1;" parent="bxJik_AMvIZyw83LSy6p-10" vertex="1">
          <mxGeometry y="101" width="182" height="26" as="geometry" />
        </mxCell>
        <mxCell id="bxJik_AMvIZyw83LSy6p-15" value="&lt;span style=&quot;text-align: center; text-wrap-mode: nowrap;&quot;&gt;+ MarketplaceButton(): void&lt;/span&gt;" style="text;strokeColor=light-dark(#000000,#512D2B);fillColor=default;align=left;verticalAlign=top;spacingLeft=4;spacingRight=4;overflow=hidden;rotatable=0;points=[[0,0.5],[1,0.5]];portConstraint=eastwest;whiteSpace=wrap;html=1;" parent="bxJik_AMvIZyw83LSy6p-10" vertex="1">
          <mxGeometry y="127" width="182" height="26" as="geometry" />
        </mxCell>
        <mxCell id="bxJik_AMvIZyw83LSy6p-16" value="&lt;span style=&quot;font-size: 11px; text-align: center; text-wrap-mode: nowrap; background-color: rgb(255, 255, 255);&quot;&gt;+ LoadNotifList()&lt;/span&gt;" style="text;strokeColor=light-dark(#000000,#512D2B);fillColor=default;align=left;verticalAlign=top;spacingLeft=4;spacingRight=4;overflow=hidden;rotatable=0;points=[[0,0.5],[1,0.5]];portConstraint=eastwest;whiteSpace=wrap;html=1;" parent="bxJik_AMvIZyw83LSy6p-10" vertex="1">
          <mxGeometry y="153" width="182" height="52" as="geometry" />
        </mxCell>
        <mxCell id="bxJik_AMvIZyw83LSy6p-17" value="&lt;span style=&quot;text-align: center; text-wrap-mode: nowrap;&quot;&gt;+&amp;nbsp;&lt;/span&gt;&lt;span style=&quot;text-align: center; text-wrap-mode: nowrap;&quot;&gt;NotificationButton()&lt;/span&gt;&lt;span style=&quot;text-align: center; text-wrap-mode: nowrap;&quot;&gt;: void&lt;/span&gt;" style="text;strokeColor=light-dark(#000000,#512D2B);fillColor=default;align=left;verticalAlign=top;spacingLeft=4;spacingRight=4;overflow=hidden;rotatable=0;points=[[0,0.5],[1,0.5]];portConstraint=eastwest;whiteSpace=wrap;html=1;" parent="bxJik_AMvIZyw83LSy6p-10" vertex="1">
          <mxGeometry y="179" width="182" height="26" as="geometry" />
        </mxCell>
        <mxCell id="bxJik_AMvIZyw83LSy6p-18" value="&lt;span style=&quot;text-align: center; text-wrap-mode: nowrap;&quot;&gt;+ ManMaint&lt;/span&gt;&lt;span style=&quot;text-align: center; text-wrap-mode: nowrap;&quot;&gt;Button()&lt;/span&gt;&lt;span style=&quot;text-align: center; text-wrap-mode: nowrap;&quot;&gt;: void&lt;/span&gt;" style="text;strokeColor=light-dark(#000000,#512D2B);fillColor=default;align=left;verticalAlign=top;spacingLeft=4;spacingRight=4;overflow=hidden;rotatable=0;points=[[0,0.5],[1,0.5]];portConstraint=eastwest;whiteSpace=wrap;html=1;" parent="bxJik_AMvIZyw83LSy6p-10" vertex="1">
          <mxGeometry y="205" width="182" height="26" as="geometry" />
        </mxCell>
        <mxCell id="bxJik_AMvIZyw83LSy6p-19" value="TenAp_Mngr_Scr" style="swimlane;whiteSpace=wrap;html=1;fillColor=#f8cecc;strokeColor=#b85450;startSize=23;" parent="1" vertex="1">
          <mxGeometry x="899" y="316" width="182" height="76" as="geometry" />
        </mxCell>
        <mxCell id="bxJik_AMvIZyw83LSy6p-20" value="+ display(): void" style="text;strokeColor=light-dark(#000000,#512D2B);fillColor=default;align=left;verticalAlign=top;spacingLeft=4;spacingRight=4;overflow=hidden;rotatable=0;points=[[0,0.5],[1,0.5]];portConstraint=eastwest;whiteSpace=wrap;html=1;" parent="bxJik_AMvIZyw83LSy6p-19" vertex="1">
          <mxGeometry y="23" width="181" height="26" as="geometry" />
        </mxCell>
        <mxCell id="bxJik_AMvIZyw83LSy6p-21" value="+ removeButton(): void" style="text;strokeColor=light-dark(#000000,#512D2B);fillColor=default;align=left;verticalAlign=top;spacingLeft=4;spacingRight=4;overflow=hidden;rotatable=0;points=[[0,0.5],[1,0.5]];portConstraint=eastwest;whiteSpace=wrap;html=1;" parent="bxJik_AMvIZyw83LSy6p-19" vertex="1">
          <mxGeometry y="49" width="181" height="26" as="geometry" />
        </mxCell>
        <mxCell id="bxJik_AMvIZyw83LSy6p-22" value="" style="endArrow=none;html=1;rounded=0;entryX=0;entryY=0.5;entryDx=0;entryDy=0;exitX=1;exitY=0.5;exitDx=0;exitDy=0;" parent="1" source="bxJik_AMvIZyw83LSy6p-10" target="bxJik_AMvIZyw83LSy6p-19" edge="1">
          <mxGeometry width="50" height="50" relative="1" as="geometry">
            <mxPoint x="642" y="399" as="sourcePoint" />
            <mxPoint x="740" y="295" as="targetPoint" />
          </mxGeometry>
        </mxCell>
        <mxCell id="bxJik_AMvIZyw83LSy6p-24" value="Tnt_List_Scr" style="swimlane;whiteSpace=wrap;html=1;fillColor=#f8cecc;strokeColor=#b85450;startSize=23;" parent="1" vertex="1">
          <mxGeometry x="1440" y="316" width="182" height="74" as="geometry" />
        </mxCell>
        <mxCell id="bxJik_AMvIZyw83LSy6p-25" value="+ display(): void" style="text;strokeColor=light-dark(#000000,#512D2B);fillColor=default;align=left;verticalAlign=top;spacingLeft=4;spacingRight=4;overflow=hidden;rotatable=0;points=[[0,0.5],[1,0.5]];portConstraint=eastwest;whiteSpace=wrap;html=1;" parent="bxJik_AMvIZyw83LSy6p-24" vertex="1">
          <mxGeometry y="23" width="181" height="26" as="geometry" />
        </mxCell>
        <mxCell id="bxJik_AMvIZyw83LSy6p-26" value="+ confirm(): void" style="text;strokeColor=light-dark(#000000,#512D2B);fillColor=default;align=left;verticalAlign=top;spacingLeft=4;spacingRight=4;overflow=hidden;rotatable=0;points=[[0,0.5],[1,0.5]];portConstraint=eastwest;whiteSpace=wrap;html=1;" parent="bxJik_AMvIZyw83LSy6p-24" vertex="1">
          <mxGeometry y="49" width="181" height="26" as="geometry" />
        </mxCell>
        <mxCell id="bxJik_AMvIZyw83LSy6p-27" value="Manage_1" style="swimlane;whiteSpace=wrap;html=1;fillColor=#f8cecc;strokeColor=#b85450;startSize=23;" parent="1" vertex="1">
          <mxGeometry x="1168" y="277" width="182" height="154" as="geometry" />
        </mxCell>
        <mxCell id="bxJik_AMvIZyw83LSy6p-28" value="+ queryTenant()" style="text;strokeColor=light-dark(#000000,#512D2B);fillColor=default;align=left;verticalAlign=top;spacingLeft=4;spacingRight=4;overflow=hidden;rotatable=0;points=[[0,0.5],[1,0.5]];portConstraint=eastwest;whiteSpace=wrap;html=1;" parent="bxJik_AMvIZyw83LSy6p-27" vertex="1">
          <mxGeometry y="23" width="181" height="26" as="geometry" />
        </mxCell>
        <mxCell id="bxJik_AMvIZyw83LSy6p-29" value="+ showResults()" style="text;strokeColor=light-dark(#000000,#512D2B);fillColor=default;align=left;verticalAlign=top;spacingLeft=4;spacingRight=4;overflow=hidden;rotatable=0;points=[[0,0.5],[1,0.5]];portConstraint=eastwest;whiteSpace=wrap;html=1;" parent="bxJik_AMvIZyw83LSy6p-27" vertex="1">
          <mxGeometry y="49" width="181" height="26" as="geometry" />
        </mxCell>
        <mxCell id="bxJik_AMvIZyw83LSy6p-30" value="+ deleteTenant(): void" style="text;strokeColor=light-dark(#000000,#512D2B);fillColor=default;align=left;verticalAlign=top;spacingLeft=4;spacingRight=4;overflow=hidden;rotatable=0;points=[[0,0.5],[1,0.5]];portConstraint=eastwest;whiteSpace=wrap;html=1;" parent="bxJik_AMvIZyw83LSy6p-27" vertex="1">
          <mxGeometry x="1" y="75" width="181" height="26" as="geometry" />
        </mxCell>
        <mxCell id="bxJik_AMvIZyw83LSy6p-31" value="+ addTenant(): void" style="text;strokeColor=light-dark(#000000,#512D2B);fillColor=default;align=left;verticalAlign=top;spacingLeft=4;spacingRight=4;overflow=hidden;rotatable=0;points=[[0,0.5],[1,0.5]];portConstraint=eastwest;whiteSpace=wrap;html=1;" parent="bxJik_AMvIZyw83LSy6p-27" vertex="1">
          <mxGeometry x="0.5" y="101" width="181" height="26" as="geometry" />
        </mxCell>
        <mxCell id="bxJik_AMvIZyw83LSy6p-32" value="+ getOwner()" style="text;strokeColor=light-dark(#000000,#512D2B);fillColor=default;align=left;verticalAlign=top;spacingLeft=4;spacingRight=4;overflow=hidden;rotatable=0;points=[[0,0.5],[1,0.5]];portConstraint=eastwest;whiteSpace=wrap;html=1;" parent="bxJik_AMvIZyw83LSy6p-27" vertex="1">
          <mxGeometry x="1" y="127" width="181" height="26" as="geometry" />
        </mxCell>
        <mxCell id="bxJik_AMvIZyw83LSy6p-33" value="NewTnt_Add_Scr" style="swimlane;whiteSpace=wrap;html=1;fillColor=#f8cecc;strokeColor=#b85450;startSize=23;" parent="1" vertex="1">
          <mxGeometry x="1440" y="445" width="182" height="133" as="geometry" />
        </mxCell>
        <mxCell id="bxJik_AMvIZyw83LSy6p-34" value="+ display(): void" style="text;strokeColor=light-dark(#000000,#512D2B);fillColor=default;align=left;verticalAlign=top;spacingLeft=4;spacingRight=4;overflow=hidden;rotatable=0;points=[[0,0.5],[1,0.5]];portConstraint=eastwest;whiteSpace=wrap;html=1;" parent="bxJik_AMvIZyw83LSy6p-33" vertex="1">
          <mxGeometry y="23" width="181" height="26" as="geometry" />
        </mxCell>
        <mxCell id="bxJik_AMvIZyw83LSy6p-35" value="+ confirm(): void" style="text;strokeColor=light-dark(#000000,#512D2B);fillColor=default;align=left;verticalAlign=top;spacingLeft=4;spacingRight=4;overflow=hidden;rotatable=0;points=[[0,0.5],[1,0.5]];portConstraint=eastwest;whiteSpace=wrap;html=1;" parent="bxJik_AMvIZyw83LSy6p-33" vertex="1">
          <mxGeometry y="49" width="181" height="26" as="geometry" />
        </mxCell>
        <mxCell id="bxJik_AMvIZyw83LSy6p-36" value="+ checkForm(): void" style="text;strokeColor=light-dark(#000000,#512D2B);fillColor=default;align=left;verticalAlign=top;spacingLeft=4;spacingRight=4;overflow=hidden;rotatable=0;points=[[0,0.5],[1,0.5]];portConstraint=eastwest;whiteSpace=wrap;html=1;" parent="bxJik_AMvIZyw83LSy6p-33" vertex="1">
          <mxGeometry y="75" width="181" height="29" as="geometry" />
        </mxCell>
        <mxCell id="bxJik_AMvIZyw83LSy6p-37" value="+ sendTntInfo(): void" style="text;strokeColor=light-dark(#000000,#512D2B);fillColor=default;align=left;verticalAlign=top;spacingLeft=4;spacingRight=4;overflow=hidden;rotatable=0;points=[[0,0.5],[1,0.5]];portConstraint=eastwest;whiteSpace=wrap;html=1;" parent="bxJik_AMvIZyw83LSy6p-33" vertex="1">
          <mxGeometry x="1" y="104" width="181" height="29" as="geometry" />
        </mxCell>
        <mxCell id="bxJik_AMvIZyw83LSy6p-38" value="Manager" style="swimlane;whiteSpace=wrap;html=1;fillColor=#f8cecc;strokeColor=#b85450;startSize=23;" parent="1" vertex="1">
          <mxGeometry x="438" y="762" width="150" height="50" as="geometry" />
        </mxCell>
        <mxCell id="bxJik_AMvIZyw83LSy6p-39" value="- manager_id: int" style="text;strokeColor=light-dark(#000000,#512D2B);fillColor=default;align=left;verticalAlign=top;spacingLeft=4;spacingRight=4;overflow=hidden;rotatable=0;points=[[0,0.5],[1,0.5]];portConstraint=eastwest;whiteSpace=wrap;html=1;" parent="bxJik_AMvIZyw83LSy6p-38" vertex="1">
          <mxGeometry y="20" width="150" height="30" as="geometry" />
        </mxCell>
        <mxCell id="bxJik_AMvIZyw83LSy6p-40" value="Tenant" style="swimlane;whiteSpace=wrap;html=1;startSize=23;fillColor=#f8cecc;strokeColor=#b85450;" parent="1" vertex="1">
          <mxGeometry x="428" y="550" width="170" height="124" as="geometry">
            <mxRectangle x="200" y="320" width="120" height="30" as="alternateBounds" />
          </mxGeometry>
        </mxCell>
        <mxCell id="bxJik_AMvIZyw83LSy6p-41" value="- tenant_id: int" style="text;strokeColor=light-dark(#000000,#512D2B);fillColor=default;align=left;verticalAlign=top;spacingLeft=4;spacingRight=4;overflow=hidden;rotatable=0;points=[[0,0.5],[1,0.5]];portConstraint=eastwest;whiteSpace=wrap;html=1;" parent="bxJik_AMvIZyw83LSy6p-40" vertex="1">
          <mxGeometry y="20" width="170" height="26" as="geometry" />
        </mxCell>
        <mxCell id="bxJik_AMvIZyw83LSy6p-42" value="- tenant_list: Tenant[]" style="text;strokeColor=light-dark(#000000,#512D2B);fillColor=default;align=left;verticalAlign=top;spacingLeft=4;spacingRight=4;overflow=hidden;rotatable=0;points=[[0,0.5],[1,0.5]];portConstraint=eastwest;whiteSpace=wrap;html=1;" parent="bxJik_AMvIZyw83LSy6p-40" vertex="1">
          <mxGeometry y="46" width="170" height="26" as="geometry" />
        </mxCell>
        <mxCell id="bxJik_AMvIZyw83LSy6p-43" value="- tenant_name: string" style="text;strokeColor=light-dark(#000000,#512D2B);fillColor=default;align=left;verticalAlign=top;spacingLeft=4;spacingRight=4;overflow=hidden;rotatable=0;points=[[0,0.5],[1,0.5]];portConstraint=eastwest;whiteSpace=wrap;html=1;" parent="bxJik_AMvIZyw83LSy6p-40" vertex="1">
          <mxGeometry y="72" width="170" height="26" as="geometry" />
        </mxCell>
        <mxCell id="bxJik_AMvIZyw83LSy6p-44" value="+ addToList()&amp;nbsp;" style="text;strokeColor=light-dark(#000000,#512D2B);fillColor=default;align=left;verticalAlign=top;spacingLeft=4;spacingRight=4;overflow=hidden;rotatable=0;points=[[0,0.5],[1,0.5]];portConstraint=eastwest;whiteSpace=wrap;html=1;" parent="bxJik_AMvIZyw83LSy6p-40" vertex="1">
          <mxGeometry y="98" width="170" height="26" as="geometry" />
        </mxCell>
        <mxCell id="bxJik_AMvIZyw83LSy6p-45" value="Apartment" style="swimlane;whiteSpace=wrap;html=1;startSize=23;fillColor=#f8cecc;strokeColor=#b85450;" parent="1" vertex="1">
          <mxGeometry x="912.5" y="534" width="155" height="76" as="geometry" />
        </mxCell>
        <mxCell id="bxJik_AMvIZyw83LSy6p-46" value="# apartment_id: int&amp;nbsp; &amp;nbsp;????" style="text;strokeColor=light-dark(#000000,#512D2B);fillColor=default;align=left;verticalAlign=top;spacingLeft=4;spacingRight=4;overflow=hidden;rotatable=0;points=[[0,0.5],[1,0.5]];portConstraint=eastwest;whiteSpace=wrap;html=1;" parent="bxJik_AMvIZyw83LSy6p-45" vertex="1">
          <mxGeometry y="24" width="155" height="26" as="geometry" />
        </mxCell>
        <mxCell id="bxJik_AMvIZyw83LSy6p-47" value="# owner : string" style="text;strokeColor=light-dark(#000000,#512D2B);fillColor=default;align=left;verticalAlign=top;spacingLeft=4;spacingRight=4;overflow=hidden;rotatable=0;points=[[0,0.5],[1,0.5]];portConstraint=eastwest;whiteSpace=wrap;html=1;" parent="bxJik_AMvIZyw83LSy6p-45" vertex="1">
          <mxGeometry y="50" width="155" height="26" as="geometry" />
        </mxCell>
        <mxCell id="bxJik_AMvIZyw83LSy6p-48" value="" style="endArrow=none;html=1;rounded=0;entryX=0;entryY=0.5;entryDx=0;entryDy=0;exitX=1;exitY=0.5;exitDx=0;exitDy=0;" parent="1" source="bxJik_AMvIZyw83LSy6p-19" target="bxJik_AMvIZyw83LSy6p-27" edge="1">
          <mxGeometry width="50" height="50" relative="1" as="geometry">
            <mxPoint x="1334" y="354" as="sourcePoint" />
            <mxPoint x="1387" y="379" as="targetPoint" />
          </mxGeometry>
        </mxCell>
        <mxCell id="bxJik_AMvIZyw83LSy6p-49" value="" style="endArrow=none;html=1;rounded=0;entryX=0;entryY=0.5;entryDx=0;entryDy=0;exitX=1;exitY=0.5;exitDx=0;exitDy=0;" parent="1" source="bxJik_AMvIZyw83LSy6p-41" target="bxJik_AMvIZyw83LSy6p-31" edge="1">
          <mxGeometry width="50" height="50" relative="1" as="geometry">
            <mxPoint x="922" y="513" as="sourcePoint" />
            <mxPoint x="1009" y="513" as="targetPoint" />
          </mxGeometry>
        </mxCell>
        <mxCell id="bxJik_AMvIZyw83LSy6p-50" value="" style="endArrow=none;html=1;rounded=0;exitX=1;exitY=0.5;exitDx=0;exitDy=0;entryX=0;entryY=0.5;entryDx=0;entryDy=0;" parent="1" source="bxJik_AMvIZyw83LSy6p-27" target="bxJik_AMvIZyw83LSy6p-24" edge="1">
          <mxGeometry width="50" height="50" relative="1" as="geometry">
            <mxPoint x="1425" y="372" as="sourcePoint" />
            <mxPoint x="1453" y="354" as="targetPoint" />
          </mxGeometry>
        </mxCell>
        <mxCell id="bxJik_AMvIZyw83LSy6p-52" value="" style="endArrow=none;html=1;rounded=0;exitX=1;exitY=0.5;exitDx=0;exitDy=0;entryX=0;entryY=0.25;entryDx=0;entryDy=0;" parent="1" source="bxJik_AMvIZyw83LSy6p-32" target="bxJik_AMvIZyw83LSy6p-33" edge="1">
          <mxGeometry width="50" height="50" relative="1" as="geometry">
            <mxPoint x="1223" y="599" as="sourcePoint" />
            <mxPoint x="1313" y="598" as="targetPoint" />
          </mxGeometry>
        </mxCell>
        <mxCell id="bxJik_AMvIZyw83LSy6p-55" value="" style="endArrow=none;html=1;rounded=0;exitX=1;exitY=0.5;exitDx=0;exitDy=0;entryX=0;entryY=1;entryDx=0;entryDy=0;" parent="1" source="bxJik_AMvIZyw83LSy6p-45" target="bxJik_AMvIZyw83LSy6p-27" edge="1">
          <mxGeometry width="50" height="50" relative="1" as="geometry">
            <mxPoint x="963" y="589" as="sourcePoint" />
            <mxPoint x="1053" y="588" as="targetPoint" />
          </mxGeometry>
        </mxCell>
        <mxCell id="bxJik_AMvIZyw83LSy6p-57" value="" style="endArrow=diamondThin;endFill=0;endSize=24;html=1;rounded=0;exitX=1;exitY=0.5;exitDx=0;exitDy=0;entryX=0;entryY=0.5;entryDx=0;entryDy=0;" parent="1" source="bxJik_AMvIZyw83LSy6p-40" target="bxJik_AMvIZyw83LSy6p-45" edge="1">
          <mxGeometry width="160" relative="1" as="geometry">
            <mxPoint x="626" y="618" as="sourcePoint" />
            <mxPoint x="786" y="618" as="targetPoint" />
          </mxGeometry>
        </mxCell>
        <mxCell id="bxJik_AMvIZyw83LSy6p-58" value="" style="endArrow=block;endSize=16;endFill=0;html=1;rounded=0;exitX=0.5;exitY=0;exitDx=0;exitDy=0;entryX=0.5;entryY=1;entryDx=0;entryDy=0;" parent="1" source="bxJik_AMvIZyw83LSy6p-38" target="bxJik_AMvIZyw83LSy6p-40" edge="1">
          <mxGeometry width="160" relative="1" as="geometry">
            <mxPoint x="329" y="706" as="sourcePoint" />
            <mxPoint x="489" y="706" as="targetPoint" />
          </mxGeometry>
        </mxCell>
        <mxCell id="bxJik_AMvIZyw83LSy6p-60" value="Maint_Scr" style="swimlane;whiteSpace=wrap;html=1;fillColor=#f8cecc;strokeColor=#b85450;startSize=23;" parent="1" vertex="1">
          <mxGeometry x="1022" y="-372" width="182" height="73.5" as="geometry" />
        </mxCell>
        <mxCell id="bxJik_AMvIZyw83LSy6p-61" value="+ display(): void" style="text;strokeColor=light-dark(#000000,#512D2B);fillColor=default;align=left;verticalAlign=top;spacingLeft=4;spacingRight=4;overflow=hidden;rotatable=0;points=[[0,0.5],[1,0.5]];portConstraint=eastwest;whiteSpace=wrap;html=1;" parent="bxJik_AMvIZyw83LSy6p-60" vertex="1">
          <mxGeometry y="22" width="182" height="26" as="geometry" />
        </mxCell>
        <mxCell id="bxJik_AMvIZyw83LSy6p-62" value="+ NewMainButton(): void" style="text;strokeColor=light-dark(#000000,#512D2B);fillColor=default;align=left;verticalAlign=top;spacingLeft=4;spacingRight=4;overflow=hidden;rotatable=0;points=[[0,0.5],[1,0.5]];portConstraint=eastwest;whiteSpace=wrap;html=1;" parent="bxJik_AMvIZyw83LSy6p-60" vertex="1">
          <mxGeometry y="47.5" width="182" height="26" as="geometry" />
        </mxCell>
        <mxCell id="bxJik_AMvIZyw83LSy6p-66" value="Add_Maint_Scr" style="swimlane;whiteSpace=wrap;html=1;fillColor=#f8cecc;strokeColor=#b85450;startSize=23;" parent="1" vertex="1">
          <mxGeometry x="1327" y="-360" width="182" height="152" as="geometry" />
        </mxCell>
        <mxCell id="bxJik_AMvIZyw83LSy6p-67" value="+ display(): void" style="text;strokeColor=light-dark(#000000,#512D2B);fillColor=default;align=left;verticalAlign=top;spacingLeft=4;spacingRight=4;overflow=hidden;rotatable=0;points=[[0,0.5],[1,0.5]];portConstraint=eastwest;whiteSpace=wrap;html=1;" parent="bxJik_AMvIZyw83LSy6p-66" vertex="1">
          <mxGeometry y="22" width="182" height="26" as="geometry" />
        </mxCell>
        <mxCell id="bxJik_AMvIZyw83LSy6p-68" value="+ FillForm(): void" style="text;strokeColor=light-dark(#000000,#512D2B);fillColor=default;align=left;verticalAlign=top;spacingLeft=4;spacingRight=4;overflow=hidden;rotatable=0;points=[[0,0.5],[1,0.5]];portConstraint=eastwest;whiteSpace=wrap;html=1;" parent="bxJik_AMvIZyw83LSy6p-66" vertex="1">
          <mxGeometry y="47.5" width="182" height="26" as="geometry" />
        </mxCell>
        <mxCell id="bxJik_AMvIZyw83LSy6p-69" value="+ CheckForm()" style="text;strokeColor=light-dark(#000000,#512D2B);fillColor=default;align=left;verticalAlign=top;spacingLeft=4;spacingRight=4;overflow=hidden;rotatable=0;points=[[0,0.5],[1,0.5]];portConstraint=eastwest;whiteSpace=wrap;html=1;" parent="bxJik_AMvIZyw83LSy6p-66" vertex="1">
          <mxGeometry y="73.5" width="182" height="26" as="geometry" />
        </mxCell>
        <mxCell id="bxJik_AMvIZyw83LSy6p-70" value="+ SendMaintInfo(): void" style="text;strokeColor=light-dark(#000000,#512D2B);fillColor=default;align=left;verticalAlign=top;spacingLeft=4;spacingRight=4;overflow=hidden;rotatable=0;points=[[0,0.5],[1,0.5]];portConstraint=eastwest;whiteSpace=wrap;html=1;" parent="bxJik_AMvIZyw83LSy6p-66" vertex="1">
          <mxGeometry y="99.5" width="182" height="26" as="geometry" />
        </mxCell>
        <mxCell id="bxJik_AMvIZyw83LSy6p-71" value="&lt;span style=&quot;font-size: 11px; text-align: center; text-wrap-mode: nowrap; background-color: rgb(255, 255, 255);&quot;&gt;+ ErrorMessage(): void&lt;/span&gt;" style="text;strokeColor=light-dark(#000000,#512D2B);fillColor=default;align=left;verticalAlign=top;spacingLeft=4;spacingRight=4;overflow=hidden;rotatable=0;points=[[0,0.5],[1,0.5]];portConstraint=eastwest;whiteSpace=wrap;html=1;" parent="bxJik_AMvIZyw83LSy6p-66" vertex="1">
          <mxGeometry y="125.5" width="182" height="26" as="geometry" />
        </mxCell>
        <mxCell id="bxJik_AMvIZyw83LSy6p-72" value="Notification" style="swimlane;whiteSpace=wrap;html=1;fillColor=#f8cecc;strokeColor=#b85450;" parent="1" vertex="1">
          <mxGeometry x="431" y="-249" width="160" height="260" as="geometry" />
        </mxCell>
        <mxCell id="bxJik_AMvIZyw83LSy6p-73" value="# Notification_id: int" style="text;strokeColor=light-dark(#000000,#512D2B);fillColor=default;align=left;verticalAlign=top;spacingLeft=4;spacingRight=4;overflow=hidden;rotatable=0;points=[[0,0.5],[1,0.5]];portConstraint=eastwest;whiteSpace=wrap;html=1;" parent="bxJik_AMvIZyw83LSy6p-72" vertex="1">
          <mxGeometry y="23" width="160" height="30" as="geometry" />
        </mxCell>
        <mxCell id="bxJik_AMvIZyw83LSy6p-74" value="# Notification_list:&lt;div&gt;Notification[]&lt;/div&gt;" style="text;strokeColor=light-dark(#000000,#512D2B);fillColor=default;align=left;verticalAlign=top;spacingLeft=4;spacingRight=4;overflow=hidden;rotatable=0;points=[[0,0.5],[1,0.5]];portConstraint=eastwest;whiteSpace=wrap;html=1;" parent="bxJik_AMvIZyw83LSy6p-72" vertex="1">
          <mxGeometry y="80" width="160" height="40" as="geometry" />
        </mxCell>
        <mxCell id="bxJik_AMvIZyw83LSy6p-75" value="# Notification_desc: string[]" style="text;strokeColor=light-dark(#000000,#512D2B);fillColor=default;align=left;verticalAlign=top;spacingLeft=4;spacingRight=4;overflow=hidden;rotatable=0;points=[[0,0.5],[1,0.5]];portConstraint=eastwest;whiteSpace=wrap;html=1;" parent="bxJik_AMvIZyw83LSy6p-72" vertex="1">
          <mxGeometry y="50" width="160" height="30" as="geometry" />
        </mxCell>
        <mxCell id="bxJik_AMvIZyw83LSy6p-76" value="# addNotifToList()" style="text;strokeColor=light-dark(#000000,#512D2B);fillColor=default;align=left;verticalAlign=top;spacingLeft=4;spacingRight=4;overflow=hidden;rotatable=0;points=[[0,0.5],[1,0.5]];portConstraint=eastwest;whiteSpace=wrap;html=1;" parent="bxJik_AMvIZyw83LSy6p-72" vertex="1">
          <mxGeometry y="120" width="160" height="42" as="geometry" />
        </mxCell>
        <mxCell id="bxJik_AMvIZyw83LSy6p-77" value="# sendNotifData()" style="text;strokeColor=light-dark(#000000,#512D2B);fillColor=default;align=left;verticalAlign=top;spacingLeft=4;spacingRight=4;overflow=hidden;rotatable=0;points=[[0,0.5],[1,0.5]];portConstraint=eastwest;whiteSpace=wrap;html=1;" parent="bxJik_AMvIZyw83LSy6p-72" vertex="1">
          <mxGeometry y="162" width="160" height="39" as="geometry" />
        </mxCell>
        <mxCell id="bxJik_AMvIZyw83LSy6p-78" value="&lt;span style=&quot;text-align: center; text-wrap-mode: nowrap;&quot;&gt;+ displayNotifications()&lt;/span&gt;" style="text;strokeColor=light-dark(#000000,#512D2B);fillColor=default;align=left;verticalAlign=top;spacingLeft=4;spacingRight=4;overflow=hidden;rotatable=0;points=[[0,0.5],[1,0.5]];portConstraint=eastwest;whiteSpace=wrap;html=1;" parent="bxJik_AMvIZyw83LSy6p-72" vertex="1">
          <mxGeometry y="192" width="160" height="39" as="geometry" />
        </mxCell>
        <mxCell id="bxJik_AMvIZyw83LSy6p-79" value="&lt;span style=&quot;text-align: center; text-wrap-mode: nowrap;&quot;&gt;+&amp;nbsp;&lt;/span&gt;&lt;span style=&quot;text-align: center; text-wrap-mode: nowrap;&quot;&gt;CancelComCharges()&lt;/span&gt;" style="text;strokeColor=light-dark(#000000,#512D2B);fillColor=default;align=left;verticalAlign=top;spacingLeft=4;spacingRight=4;overflow=hidden;rotatable=0;points=[[0,0.5],[1,0.5]];portConstraint=eastwest;whiteSpace=wrap;html=1;" parent="bxJik_AMvIZyw83LSy6p-72" vertex="1">
          <mxGeometry y="229" width="160" height="30" as="geometry" />
        </mxCell>
        <mxCell id="bxJik_AMvIZyw83LSy6p-81" value="Maintenance" style="swimlane;whiteSpace=wrap;html=1;fillColor=#f8cecc;strokeColor=#b85450;" parent="1" vertex="1">
          <mxGeometry x="735" y="-534" width="164" height="162" as="geometry" />
        </mxCell>
        <mxCell id="bxJik_AMvIZyw83LSy6p-82" value="# Maintenance_id: int" style="text;strokeColor=light-dark(#000000,#512D2B);fillColor=default;align=left;verticalAlign=top;spacingLeft=4;spacingRight=4;overflow=hidden;rotatable=0;points=[[0,0.5],[1,0.5]];portConstraint=eastwest;whiteSpace=wrap;html=1;" parent="bxJik_AMvIZyw83LSy6p-81" vertex="1">
          <mxGeometry y="23" width="164" height="30" as="geometry" />
        </mxCell>
        <mxCell id="bxJik_AMvIZyw83LSy6p-83" value="# Maintenance_list:&lt;br&gt;&lt;div&gt;&lt;span style=&quot;background-color: transparent; color: light-dark(rgb(0, 0, 0), rgb(255, 255, 255));&quot;&gt;Maintenance&lt;/span&gt;[]&lt;/div&gt;" style="text;strokeColor=light-dark(#000000,#512D2B);fillColor=default;align=left;verticalAlign=top;spacingLeft=4;spacingRight=4;overflow=hidden;rotatable=0;points=[[0,0.5],[1,0.5]];portConstraint=eastwest;whiteSpace=wrap;html=1;" parent="bxJik_AMvIZyw83LSy6p-81" vertex="1">
          <mxGeometry y="84" width="164" height="36" as="geometry" />
        </mxCell>
        <mxCell id="bxJik_AMvIZyw83LSy6p-84" value="# Maintenance_desc: string[]" style="text;strokeColor=light-dark(#000000,#512D2B);fillColor=default;align=left;verticalAlign=top;spacingLeft=4;spacingRight=4;overflow=hidden;rotatable=0;points=[[0,0.5],[1,0.5]];portConstraint=eastwest;whiteSpace=wrap;html=1;" parent="bxJik_AMvIZyw83LSy6p-81" vertex="1">
          <mxGeometry y="50" width="164" height="38" as="geometry" />
        </mxCell>
        <mxCell id="bxJik_AMvIZyw83LSy6p-85" value="# addMainifToList()" style="text;strokeColor=light-dark(#000000,#512D2B);fillColor=default;align=left;verticalAlign=top;spacingLeft=4;spacingRight=4;overflow=hidden;rotatable=0;points=[[0,0.5],[1,0.5]];portConstraint=eastwest;whiteSpace=wrap;html=1;" parent="bxJik_AMvIZyw83LSy6p-81" vertex="1">
          <mxGeometry y="120" width="164" height="42" as="geometry" />
        </mxCell>
        <mxCell id="bxJik_AMvIZyw83LSy6p-86" value="&lt;span style=&quot;font-weight: 700;&quot;&gt;Tenant_Notif_Scr&lt;/span&gt;" style="swimlane;fontStyle=0;childLayout=stackLayout;horizontal=1;startSize=26;fillColor=#f8cecc;horizontalStack=0;resizeParent=1;resizeParentMax=0;resizeLast=0;collapsible=1;marginBottom=0;whiteSpace=wrap;html=1;strokeColor=#b85450;" parent="1" vertex="1">
          <mxGeometry x="1039" y="-522" width="154" height="78" as="geometry" />
        </mxCell>
        <mxCell id="bxJik_AMvIZyw83LSy6p-87" value="+ field: type" style="text;strokeColor=light-dark(#000000,#512D2B);fillColor=default;align=left;verticalAlign=top;spacingLeft=4;spacingRight=4;overflow=hidden;rotatable=0;points=[[0,0.5],[1,0.5]];portConstraint=eastwest;whiteSpace=wrap;html=1;" parent="bxJik_AMvIZyw83LSy6p-86" vertex="1">
          <mxGeometry y="26" width="154" height="26" as="geometry" />
        </mxCell>
        <mxCell id="bxJik_AMvIZyw83LSy6p-88" value="+ field: type" style="text;strokeColor=light-dark(#000000,#512D2B);fillColor=default;align=left;verticalAlign=top;spacingLeft=4;spacingRight=4;overflow=hidden;rotatable=0;points=[[0,0.5],[1,0.5]];portConstraint=eastwest;whiteSpace=wrap;html=1;" parent="bxJik_AMvIZyw83LSy6p-86" vertex="1">
          <mxGeometry y="52" width="154" height="26" as="geometry" />
        </mxCell>
        <mxCell id="bxJik_AMvIZyw83LSy6p-90" value="Manage_Maint_Class" style="swimlane;whiteSpace=wrap;html=1;fillColor=#f8cecc;strokeColor=#b85450;startSize=23;" parent="1" vertex="1">
          <mxGeometry x="726" y="-314" width="182" height="125" as="geometry" />
        </mxCell>
        <mxCell id="bxJik_AMvIZyw83LSy6p-91" value="+ QueryMaintenance()" style="text;strokeColor=light-dark(#000000,#512D2B);fillColor=default;align=left;verticalAlign=top;spacingLeft=4;spacingRight=4;overflow=hidden;rotatable=0;points=[[0,0.5],[1,0.5]];portConstraint=eastwest;whiteSpace=wrap;html=1;" parent="bxJik_AMvIZyw83LSy6p-90" vertex="1">
          <mxGeometry y="22" width="182" height="26" as="geometry" />
        </mxCell>
        <mxCell id="bxJik_AMvIZyw83LSy6p-92" value="+ ShowResults(): void" style="text;strokeColor=light-dark(#000000,#512D2B);fillColor=default;align=left;verticalAlign=top;spacingLeft=4;spacingRight=4;overflow=hidden;rotatable=0;points=[[0,0.5],[1,0.5]];portConstraint=eastwest;whiteSpace=wrap;html=1;" parent="bxJik_AMvIZyw83LSy6p-90" vertex="1">
          <mxGeometry y="47.5" width="182" height="26" as="geometry" />
        </mxCell>
        <mxCell id="bxJik_AMvIZyw83LSy6p-93" value="+ AddMaintenance()" style="text;strokeColor=light-dark(#000000,#512D2B);fillColor=default;align=left;verticalAlign=top;spacingLeft=4;spacingRight=4;overflow=hidden;rotatable=0;points=[[0,0.5],[1,0.5]];portConstraint=eastwest;whiteSpace=wrap;html=1;" parent="bxJik_AMvIZyw83LSy6p-90" vertex="1">
          <mxGeometry y="73.5" width="182" height="26" as="geometry" />
        </mxCell>
        <mxCell id="bxJik_AMvIZyw83LSy6p-94" value="+ QueryNotification()" style="text;strokeColor=light-dark(#000000,#512D2B);fillColor=default;align=left;verticalAlign=top;spacingLeft=4;spacingRight=4;overflow=hidden;rotatable=0;points=[[0,0.5],[1,0.5]];portConstraint=eastwest;whiteSpace=wrap;html=1;" parent="bxJik_AMvIZyw83LSy6p-90" vertex="1">
          <mxGeometry y="99.5" width="182" height="26" as="geometry" />
        </mxCell>
        <mxCell id="bxJik_AMvIZyw83LSy6p-96" value="" style="endArrow=none;html=1;rounded=0;exitX=1;exitY=0;exitDx=0;exitDy=0;entryX=0.25;entryY=1;entryDx=0;entryDy=0;" parent="1" source="bxJik_AMvIZyw83LSy6p-10" target="bxJik_AMvIZyw83LSy6p-90" edge="1">
          <mxGeometry width="50" height="50" relative="1" as="geometry">
            <mxPoint x="658" y="248" as="sourcePoint" />
            <mxPoint x="760" y="-154" as="targetPoint" />
          </mxGeometry>
        </mxCell>
        <mxCell id="bxJik_AMvIZyw83LSy6p-98" value="" style="endArrow=none;html=1;rounded=0;entryX=0.5;entryY=1;entryDx=0;entryDy=0;exitX=0.5;exitY=0;exitDx=0;exitDy=0;" parent="1" source="bxJik_AMvIZyw83LSy6p-90" target="bxJik_AMvIZyw83LSy6p-81" edge="1">
          <mxGeometry width="50" height="50" relative="1" as="geometry">
            <mxPoint x="756" y="-110" as="sourcePoint" />
            <mxPoint x="919" y="-302" as="targetPoint" />
          </mxGeometry>
        </mxCell>
        <mxCell id="bxJik_AMvIZyw83LSy6p-99" value="" style="endArrow=none;html=1;rounded=0;entryX=0;entryY=0.5;entryDx=0;entryDy=0;exitX=1;exitY=0.25;exitDx=0;exitDy=0;" parent="1" source="bxJik_AMvIZyw83LSy6p-90" target="bxJik_AMvIZyw83LSy6p-60" edge="1">
          <mxGeometry width="50" height="50" relative="1" as="geometry">
            <mxPoint x="954" y="-297" as="sourcePoint" />
            <mxPoint x="954" y="-355" as="targetPoint" />
          </mxGeometry>
        </mxCell>
        <mxCell id="bxJik_AMvIZyw83LSy6p-100" value="" style="endArrow=none;html=1;rounded=0;entryX=0;entryY=0.5;entryDx=0;entryDy=0;exitX=1;exitY=0.5;exitDx=0;exitDy=0;" parent="1" source="bxJik_AMvIZyw83LSy6p-60" target="bxJik_AMvIZyw83LSy6p-67" edge="1">
          <mxGeometry width="50" height="50" relative="1" as="geometry">
            <mxPoint x="1297" y="-365" as="sourcePoint" />
            <mxPoint x="1432" y="-417" as="targetPoint" />
          </mxGeometry>
        </mxCell>
        <mxCell id="bxJik_AMvIZyw83LSy6p-101" value="" style="endArrow=none;html=1;rounded=0;entryX=0;entryY=0.5;entryDx=0;entryDy=0;exitX=1;exitY=0.5;exitDx=0;exitDy=0;" parent="1" source="bxJik_AMvIZyw83LSy6p-90" target="bxJik_AMvIZyw83LSy6p-66" edge="1">
          <mxGeometry width="50" height="50" relative="1" as="geometry">
            <mxPoint x="1026" y="-186" as="sourcePoint" />
            <mxPoint x="1161" y="-238" as="targetPoint" />
          </mxGeometry>
        </mxCell>
        <mxCell id="bxJik_AMvIZyw83LSy6p-102" value="" style="endArrow=none;html=1;rounded=0;entryX=0;entryY=0.5;entryDx=0;entryDy=0;exitX=1;exitY=0.5;exitDx=0;exitDy=0;" parent="1" source="bxJik_AMvIZyw83LSy6p-73" target="bxJik_AMvIZyw83LSy6p-90" edge="1">
          <mxGeometry width="50" height="50" relative="1" as="geometry">
            <mxPoint x="603" y="112" as="sourcePoint" />
            <mxPoint x="1087" y="52" as="targetPoint" />
          </mxGeometry>
        </mxCell>
        <mxCell id="bxJik_AMvIZyw83LSy6p-103" value="" style="endArrow=none;html=1;rounded=0;entryX=0;entryY=0.5;entryDx=0;entryDy=0;exitX=1;exitY=0;exitDx=0;exitDy=0;" parent="1" source="bxJik_AMvIZyw83LSy6p-90" target="bxJik_AMvIZyw83LSy6p-87" edge="1">
          <mxGeometry width="50" height="50" relative="1" as="geometry">
            <mxPoint x="1236" y="-504" as="sourcePoint" />
            <mxPoint x="1654" y="-508" as="targetPoint" />
          </mxGeometry>
        </mxCell>
        <mxCell id="bxJik_AMvIZyw83LSy6p-106" value="&lt;b&gt;Mngr_Notif_Scr&lt;/b&gt;" style="swimlane;fontStyle=0;childLayout=stackLayout;horizontal=1;startSize=26;fillColor=#f8cecc;horizontalStack=0;resizeParent=1;resizeParentMax=0;resizeLast=0;collapsible=1;marginBottom=0;whiteSpace=wrap;html=1;strokeColor=#b85450;" parent="1" vertex="1">
          <mxGeometry x="-94" y="-168" width="174" height="258" as="geometry" />
        </mxCell>
        <mxCell id="bxJik_AMvIZyw83LSy6p-107" value="&lt;span style=&quot;font-size: 11px; text-align: center; text-wrap-mode: nowrap; background-color: rgb(255, 255, 255);&quot;&gt;+ display(): void&lt;/span&gt;" style="text;strokeColor=light-dark(#000000,#512D2B);fillColor=default;align=left;verticalAlign=top;spacingLeft=4;spacingRight=4;overflow=hidden;rotatable=0;points=[[0,0.5],[1,0.5]];portConstraint=eastwest;whiteSpace=wrap;html=1;" parent="bxJik_AMvIZyw83LSy6p-106" vertex="1">
          <mxGeometry y="26" width="174" height="28" as="geometry" />
        </mxCell>
        <mxCell id="bxJik_AMvIZyw83LSy6p-108" value="&lt;span style=&quot;font-size: 11px; text-align: center; text-wrap-mode: nowrap; background-color: rgb(255, 255, 255);&quot;&gt;+ NewNotifButton(): void&lt;/span&gt;" style="text;strokeColor=light-dark(#000000,#512D2B);fillColor=default;align=left;verticalAlign=top;spacingLeft=4;spacingRight=4;overflow=hidden;rotatable=0;points=[[0,0.5],[1,0.5]];portConstraint=eastwest;whiteSpace=wrap;html=1;" parent="bxJik_AMvIZyw83LSy6p-106" vertex="1">
          <mxGeometry y="54" width="174" height="28" as="geometry" />
        </mxCell>
        <mxCell id="bxJik_AMvIZyw83LSy6p-109" value="&lt;span style=&quot;text-align: center; text-wrap-mode: nowrap;&quot;&gt;+ DisplayAnswerForm(): void&lt;/span&gt;" style="text;strokeColor=light-dark(#000000,#512D2B);fillColor=default;align=left;verticalAlign=top;spacingLeft=4;spacingRight=4;overflow=hidden;rotatable=0;points=[[0,0.5],[1,0.5]];portConstraint=eastwest;whiteSpace=wrap;html=1;" parent="bxJik_AMvIZyw83LSy6p-106" vertex="1">
          <mxGeometry y="82" width="174" height="28" as="geometry" />
        </mxCell>
        <mxCell id="bxJik_AMvIZyw83LSy6p-110" value="&lt;span style=&quot;text-align: center; text-wrap-mode: nowrap;&quot;&gt;+ AnswerButton(): void&lt;/span&gt;" style="text;strokeColor=light-dark(#000000,#512D2B);fillColor=default;align=left;verticalAlign=top;spacingLeft=4;spacingRight=4;overflow=hidden;rotatable=0;points=[[0,0.5],[1,0.5]];portConstraint=eastwest;whiteSpace=wrap;html=1;" parent="bxJik_AMvIZyw83LSy6p-106" vertex="1">
          <mxGeometry y="110" width="174" height="30" as="geometry" />
        </mxCell>
        <mxCell id="bxJik_AMvIZyw83LSy6p-111" value="+&amp;nbsp;&lt;span style=&quot;text-align: center; text-wrap-mode: nowrap;&quot;&gt;ChooseComplaint()&lt;/span&gt;" style="text;strokeColor=light-dark(#000000,#512D2B);fillColor=default;align=left;verticalAlign=top;spacingLeft=4;spacingRight=4;overflow=hidden;rotatable=0;points=[[0,0.5],[1,0.5]];portConstraint=eastwest;whiteSpace=wrap;html=1;" parent="bxJik_AMvIZyw83LSy6p-106" vertex="1">
          <mxGeometry y="140" width="174" height="30" as="geometry" />
        </mxCell>
        <mxCell id="bxJik_AMvIZyw83LSy6p-112" value="&lt;span style=&quot;text-align: center; text-wrap-mode: nowrap;&quot;&gt;+ ComplaintsButton(): void&lt;/span&gt;" style="text;strokeColor=light-dark(#000000,#512D2B);fillColor=default;align=left;verticalAlign=top;spacingLeft=4;spacingRight=4;overflow=hidden;rotatable=0;points=[[0,0.5],[1,0.5]];portConstraint=eastwest;whiteSpace=wrap;html=1;" parent="bxJik_AMvIZyw83LSy6p-106" vertex="1">
          <mxGeometry y="170" width="174" height="30" as="geometry" />
        </mxCell>
        <mxCell id="bxJik_AMvIZyw83LSy6p-113" value="&lt;span style=&quot;font-size: 11px; text-align: center; text-wrap-mode: nowrap; background-color: rgb(255, 255, 255);&quot;&gt;+ CreateNotif()&lt;/span&gt;" style="text;strokeColor=light-dark(#000000,#512D2B);fillColor=default;align=left;verticalAlign=top;spacingLeft=4;spacingRight=4;overflow=hidden;rotatable=0;points=[[0,0.5],[1,0.5]];portConstraint=eastwest;whiteSpace=wrap;html=1;" parent="bxJik_AMvIZyw83LSy6p-106" vertex="1">
          <mxGeometry y="200" width="174" height="30" as="geometry" />
        </mxCell>
        <mxCell id="bxJik_AMvIZyw83LSy6p-114" value="&lt;span style=&quot;text-align: center; text-wrap-mode: nowrap;&quot;&gt;+ StartSearch()&lt;/span&gt;" style="text;strokeColor=light-dark(#000000,#512D2B);fillColor=default;align=left;verticalAlign=top;spacingLeft=4;spacingRight=4;overflow=hidden;rotatable=0;points=[[0,0.5],[1,0.5]];portConstraint=eastwest;whiteSpace=wrap;html=1;" parent="bxJik_AMvIZyw83LSy6p-106" vertex="1">
          <mxGeometry y="230" width="174" height="28" as="geometry" />
        </mxCell>
        <mxCell id="bxJik_AMvIZyw83LSy6p-115" value="&lt;span style=&quot;text-wrap-mode: nowrap;&quot;&gt;Notif _Create_Scr&lt;/span&gt;" style="swimlane;whiteSpace=wrap;html=1;fillColor=#f8cecc;strokeColor=#b85450;startSize=23;" parent="1" vertex="1">
          <mxGeometry x="-374" y="197" width="182" height="74" as="geometry" />
        </mxCell>
        <mxCell id="bxJik_AMvIZyw83LSy6p-116" value="+ display(): void" style="text;strokeColor=light-dark(#000000,#512D2B);fillColor=default;align=left;verticalAlign=top;spacingLeft=4;spacingRight=4;overflow=hidden;rotatable=0;points=[[0,0.5],[1,0.5]];portConstraint=eastwest;whiteSpace=wrap;html=1;" parent="bxJik_AMvIZyw83LSy6p-115" vertex="1">
          <mxGeometry y="22" width="182" height="26" as="geometry" />
        </mxCell>
        <mxCell id="bxJik_AMvIZyw83LSy6p-117" value="&lt;span style=&quot;font-size: 11px; text-align: center; text-wrap-mode: nowrap; background-color: rgb(255, 255, 255);&quot;&gt;+ CreateButton(): void&lt;/span&gt;" style="text;strokeColor=light-dark(#000000,#512D2B);fillColor=default;align=left;verticalAlign=top;spacingLeft=4;spacingRight=4;overflow=hidden;rotatable=0;points=[[0,0.5],[1,0.5]];portConstraint=eastwest;whiteSpace=wrap;html=1;" parent="bxJik_AMvIZyw83LSy6p-115" vertex="1">
          <mxGeometry y="48" width="182" height="26" as="geometry" />
        </mxCell>
        <mxCell id="bxJik_AMvIZyw83LSy6p-118" value="&lt;span style=&quot;font-weight: 700;&quot;&gt;Tenant_Notif_Scr&lt;/span&gt;" style="swimlane;fontStyle=0;childLayout=stackLayout;horizontal=1;startSize=26;fillColor=#f8cecc;horizontalStack=0;resizeParent=1;resizeParentMax=0;resizeLast=0;collapsible=1;marginBottom=0;whiteSpace=wrap;html=1;strokeColor=#b85450;" parent="1" vertex="1">
          <mxGeometry x="401" y="100" width="154" height="78" as="geometry" />
        </mxCell>
        <mxCell id="bxJik_AMvIZyw83LSy6p-119" value="+ field: type" style="text;strokeColor=light-dark(#000000,#512D2B);fillColor=default;align=left;verticalAlign=top;spacingLeft=4;spacingRight=4;overflow=hidden;rotatable=0;points=[[0,0.5],[1,0.5]];portConstraint=eastwest;whiteSpace=wrap;html=1;" parent="bxJik_AMvIZyw83LSy6p-118" vertex="1">
          <mxGeometry y="26" width="154" height="26" as="geometry" />
        </mxCell>
        <mxCell id="bxJik_AMvIZyw83LSy6p-120" value="+ field: type" style="text;strokeColor=light-dark(#000000,#512D2B);fillColor=default;align=left;verticalAlign=top;spacingLeft=4;spacingRight=4;overflow=hidden;rotatable=0;points=[[0,0.5],[1,0.5]];portConstraint=eastwest;whiteSpace=wrap;html=1;" parent="bxJik_AMvIZyw83LSy6p-118" vertex="1">
          <mxGeometry y="52" width="154" height="26" as="geometry" />
        </mxCell>
        <mxCell id="bxJik_AMvIZyw83LSy6p-121" value="ManageNotifCase" style="swimlane;whiteSpace=wrap;html=1;fillColor=#f8cecc;strokeColor=#b85450;startSize=23;" parent="1" vertex="1">
          <mxGeometry x="-98" y="184" width="182" height="100" as="geometry" />
        </mxCell>
        <mxCell id="bxJik_AMvIZyw83LSy6p-122" value="&lt;span style=&quot;font-size: 11px; text-align: center; text-wrap-mode: nowrap; background-color: rgb(255, 255, 255);&quot;&gt;+ LoadList()&lt;/span&gt;" style="text;strokeColor=light-dark(#000000,#512D2B);fillColor=default;align=left;verticalAlign=top;spacingLeft=4;spacingRight=4;overflow=hidden;rotatable=0;points=[[0,0.5],[1,0.5]];portConstraint=eastwest;whiteSpace=wrap;html=1;" parent="bxJik_AMvIZyw83LSy6p-121" vertex="1">
          <mxGeometry y="22" width="182" height="26" as="geometry" />
        </mxCell>
        <mxCell id="bxJik_AMvIZyw83LSy6p-123" value="&lt;span style=&quot;font-size: 11px; text-align: center; text-wrap-mode: nowrap; background-color: rgb(255, 255, 255);&quot;&gt;+ ShowResults(): void&lt;/span&gt;" style="text;strokeColor=light-dark(#000000,#512D2B);fillColor=default;align=left;verticalAlign=top;spacingLeft=4;spacingRight=4;overflow=hidden;rotatable=0;points=[[0,0.5],[1,0.5]];portConstraint=eastwest;whiteSpace=wrap;html=1;" parent="bxJik_AMvIZyw83LSy6p-121" vertex="1">
          <mxGeometry y="48" width="182" height="26" as="geometry" />
        </mxCell>
        <mxCell id="bxJik_AMvIZyw83LSy6p-124" value="&lt;span style=&quot;font-size: 11px; text-align: center; text-wrap-mode: nowrap; background-color: rgb(255, 255, 255);&quot;&gt;+ NotifCreate()&lt;/span&gt;" style="text;strokeColor=light-dark(#000000,#512D2B);fillColor=default;align=left;verticalAlign=top;spacingLeft=4;spacingRight=4;overflow=hidden;rotatable=0;points=[[0,0.5],[1,0.5]];portConstraint=eastwest;whiteSpace=wrap;html=1;" parent="bxJik_AMvIZyw83LSy6p-121" vertex="1">
          <mxGeometry y="74" width="182" height="26" as="geometry" />
        </mxCell>
        <mxCell id="bxJik_AMvIZyw83LSy6p-125" value="" style="endArrow=none;html=1;rounded=0;entryX=0;entryY=0.25;entryDx=0;entryDy=0;exitX=1;exitY=0.5;exitDx=0;exitDy=0;" parent="1" source="bxJik_AMvIZyw83LSy6p-121" target="bxJik_AMvIZyw83LSy6p-10" edge="1">
          <mxGeometry width="50" height="50" relative="1" as="geometry">
            <mxPoint x="202" y="470" as="sourcePoint" />
            <mxPoint x="645" y="316" as="targetPoint" />
          </mxGeometry>
        </mxCell>
        <mxCell id="bxJik_AMvIZyw83LSy6p-126" value="" style="endArrow=none;html=1;rounded=0;entryX=0;entryY=0.5;entryDx=0;entryDy=0;exitX=1;exitY=0;exitDx=0;exitDy=0;" parent="1" source="bxJik_AMvIZyw83LSy6p-121" target="bxJik_AMvIZyw83LSy6p-72" edge="1">
          <mxGeometry width="50" height="50" relative="1" as="geometry">
            <mxPoint x="253" y="210" as="sourcePoint" />
            <mxPoint x="696" y="56" as="targetPoint" />
          </mxGeometry>
        </mxCell>
        <mxCell id="bxJik_AMvIZyw83LSy6p-127" value="" style="endArrow=none;html=1;rounded=0;entryX=0.5;entryY=1;entryDx=0;entryDy=0;exitX=0.5;exitY=0;exitDx=0;exitDy=0;" parent="1" source="bxJik_AMvIZyw83LSy6p-121" target="bxJik_AMvIZyw83LSy6p-106" edge="1">
          <mxGeometry width="50" height="50" relative="1" as="geometry">
            <mxPoint x="-48" y="140" as="sourcePoint" />
            <mxPoint x="395" y="-14" as="targetPoint" />
          </mxGeometry>
        </mxCell>
        <mxCell id="bxJik_AMvIZyw83LSy6p-128" value="" style="endArrow=none;html=1;rounded=0;entryX=0;entryY=0.5;entryDx=0;entryDy=0;exitX=1;exitY=0.5;exitDx=0;exitDy=0;" parent="1" source="bxJik_AMvIZyw83LSy6p-115" target="bxJik_AMvIZyw83LSy6p-121" edge="1">
          <mxGeometry width="50" height="50" relative="1" as="geometry">
            <mxPoint x="-162" y="222" as="sourcePoint" />
            <mxPoint x="281" y="68" as="targetPoint" />
          </mxGeometry>
        </mxCell>
        <mxCell id="bxJik_AMvIZyw83LSy6p-129" value="" style="endArrow=none;html=1;rounded=0;entryX=0;entryY=1;entryDx=0;entryDy=0;exitX=1;exitY=0;exitDx=0;exitDy=0;" parent="1" source="bxJik_AMvIZyw83LSy6p-115" target="bxJik_AMvIZyw83LSy6p-106" edge="1">
          <mxGeometry width="50" height="50" relative="1" as="geometry">
            <mxPoint x="-218" y="77" as="sourcePoint" />
            <mxPoint x="225" y="-77" as="targetPoint" />
          </mxGeometry>
        </mxCell>
        <mxCell id="bxJik_AMvIZyw83LSy6p-130" value="" style="endArrow=none;html=1;rounded=0;entryX=1;entryY=0.25;entryDx=0;entryDy=0;exitX=0;exitY=0.5;exitDx=0;exitDy=0;" parent="1" source="bxJik_AMvIZyw83LSy6p-118" target="bxJik_AMvIZyw83LSy6p-121" edge="1">
          <mxGeometry width="50" height="50" relative="1" as="geometry">
            <mxPoint x="-18" y="323" as="sourcePoint" />
            <mxPoint x="425" y="169" as="targetPoint" />
          </mxGeometry>
        </mxCell>
        <mxCell id="bxJik_AMvIZyw83LSy6p-132" value="Tnt_Home_Scr" style="swimlane;whiteSpace=wrap;html=1;startSize=19;fillColor=#f8cecc;strokeColor=#b85450;" parent="1" vertex="1">
          <mxGeometry x="428" y="889" width="171" height="272" as="geometry">
            <mxRectangle x="200" y="320" width="120" height="30" as="alternateBounds" />
          </mxGeometry>
        </mxCell>
        <mxCell id="bxJik_AMvIZyw83LSy6p-133" value="+ display(): void" style="text;strokeColor=light-dark(#000000,#512D2B);fillColor=default;align=left;verticalAlign=top;spacingLeft=4;spacingRight=4;overflow=hidden;rotatable=0;points=[[0,0.5],[1,0.5]];portConstraint=eastwest;whiteSpace=wrap;html=1;" parent="bxJik_AMvIZyw83LSy6p-132" vertex="1">
          <mxGeometry y="20" width="170" height="26" as="geometry" />
        </mxCell>
        <mxCell id="bxJik_AMvIZyw83LSy6p-134" value="&lt;span style=&quot;text-align: center; text-wrap-mode: nowrap;&quot;&gt;+ ComplaintButton(): void&lt;/span&gt;" style="text;strokeColor=light-dark(#000000,#512D2B);fillColor=default;align=left;verticalAlign=top;spacingLeft=4;spacingRight=4;overflow=hidden;rotatable=0;points=[[0,0.5],[1,0.5]];portConstraint=eastwest;whiteSpace=wrap;html=1;" parent="bxJik_AMvIZyw83LSy6p-132" vertex="1">
          <mxGeometry y="46" width="170" height="26" as="geometry" />
        </mxCell>
        <mxCell id="bxJik_AMvIZyw83LSy6p-135" value="&lt;span style=&quot;text-align: center; text-wrap-mode: nowrap;&quot;&gt;+ FinanceButton(): void&lt;/span&gt;" style="text;strokeColor=light-dark(#000000,#512D2B);fillColor=default;align=left;verticalAlign=top;spacingLeft=4;spacingRight=4;overflow=hidden;rotatable=0;points=[[0,0.5],[1,0.5]];portConstraint=eastwest;whiteSpace=wrap;html=1;" parent="bxJik_AMvIZyw83LSy6p-132" vertex="1">
          <mxGeometry y="70" width="170" height="26" as="geometry" />
        </mxCell>
        <mxCell id="bxJik_AMvIZyw83LSy6p-136" value="&lt;span style=&quot;text-align: center; text-wrap-mode: nowrap;&quot;&gt;+ loadDebtlist()&lt;/span&gt;" style="text;strokeColor=light-dark(#000000,#512D2B);fillColor=default;align=left;verticalAlign=top;spacingLeft=4;spacingRight=4;overflow=hidden;rotatable=0;points=[[0,0.5],[1,0.5]];portConstraint=eastwest;whiteSpace=wrap;html=1;" parent="bxJik_AMvIZyw83LSy6p-132" vertex="1">
          <mxGeometry y="94" width="170" height="26" as="geometry" />
        </mxCell>
        <mxCell id="bxJik_AMvIZyw83LSy6p-137" value="&lt;span style=&quot;font-size: 11px; text-align: center; text-wrap-mode: nowrap; background-color: rgb(255, 255, 255);&quot;&gt;+ LoadRsvtList()&lt;/span&gt;" style="text;strokeColor=light-dark(#000000,#512D2B);fillColor=default;align=left;verticalAlign=top;spacingLeft=4;spacingRight=4;overflow=hidden;rotatable=0;points=[[0,0.5],[1,0.5]];portConstraint=eastwest;whiteSpace=wrap;html=1;" parent="bxJik_AMvIZyw83LSy6p-132" vertex="1">
          <mxGeometry y="146" width="170" height="26" as="geometry" />
        </mxCell>
        <mxCell id="bxJik_AMvIZyw83LSy6p-138" value="&lt;span style=&quot;text-align: center; text-wrap-mode: nowrap;&quot;&gt;+ LostFoundButton(): void&lt;/span&gt;" style="text;strokeColor=light-dark(#000000,#512D2B);fillColor=default;align=left;verticalAlign=top;spacingLeft=4;spacingRight=4;overflow=hidden;rotatable=0;points=[[0,0.5],[1,0.5]];portConstraint=eastwest;whiteSpace=wrap;html=1;" parent="bxJik_AMvIZyw83LSy6p-132" vertex="1">
          <mxGeometry y="172" width="170" height="26" as="geometry" />
        </mxCell>
        <mxCell id="bxJik_AMvIZyw83LSy6p-139" value="&lt;span style=&quot;text-align: center; text-wrap-mode: nowrap;&quot;&gt;+ LoadLostFoundlist()&lt;/span&gt;" style="text;strokeColor=light-dark(#000000,#512D2B);fillColor=default;align=left;verticalAlign=top;spacingLeft=4;spacingRight=4;overflow=hidden;rotatable=0;points=[[0,0.5],[1,0.5]];portConstraint=eastwest;whiteSpace=wrap;html=1;" parent="bxJik_AMvIZyw83LSy6p-132" vertex="1">
          <mxGeometry y="195" width="170" height="26" as="geometry" />
        </mxCell>
        <mxCell id="bxJik_AMvIZyw83LSy6p-140" value="&lt;span style=&quot;text-align: center; text-wrap-mode: nowrap;&quot;&gt;+ NotificationButton(): void&lt;/span&gt;" style="text;strokeColor=light-dark(#000000,#512D2B);fillColor=default;align=left;verticalAlign=top;spacingLeft=4;spacingRight=4;overflow=hidden;rotatable=0;points=[[0,0.5],[1,0.5]];portConstraint=eastwest;whiteSpace=wrap;html=1;" parent="bxJik_AMvIZyw83LSy6p-132" vertex="1">
          <mxGeometry y="221" width="170" height="26" as="geometry" />
        </mxCell>
        <mxCell id="bxJik_AMvIZyw83LSy6p-141" value="&lt;span style=&quot;text-align: center; text-wrap-mode: nowrap;&quot;&gt;+ LoadNotifList()&lt;/span&gt;" style="text;strokeColor=light-dark(#000000,#512D2B);fillColor=default;align=left;verticalAlign=top;spacingLeft=4;spacingRight=4;overflow=hidden;rotatable=0;points=[[0,0.5],[1,0.5]];portConstraint=eastwest;whiteSpace=wrap;html=1;" parent="bxJik_AMvIZyw83LSy6p-132" vertex="1">
          <mxGeometry y="247" width="170" height="26" as="geometry" />
        </mxCell>
        <mxCell id="bxJik_AMvIZyw83LSy6p-142" value="&lt;span style=&quot;font-size: 11px; text-align: center; text-wrap-mode: nowrap; background-color: rgb(255, 255, 255);&quot;&gt;+ ReserveButton(): void&lt;/span&gt;" style="text;strokeColor=light-dark(#000000,#512D2B);fillColor=default;align=left;verticalAlign=top;spacingLeft=4;spacingRight=4;overflow=hidden;rotatable=0;points=[[0,0.5],[1,0.5]];portConstraint=eastwest;whiteSpace=wrap;html=1;" parent="bxJik_AMvIZyw83LSy6p-132" vertex="1">
          <mxGeometry y="120" width="170" height="26" as="geometry" />
        </mxCell>
        <mxCell id="bxJik_AMvIZyw83LSy6p-143" value="ManageReservClass" style="swimlane;whiteSpace=wrap;html=1;fillColor=#f8cecc;strokeColor=#b85450;startSize=23;" parent="1" vertex="1">
          <mxGeometry x="113" y="913" width="182" height="203" as="geometry" />
        </mxCell>
        <mxCell id="bxJik_AMvIZyw83LSy6p-144" value="&lt;span style=&quot;font-size: 11px; text-align: center; text-wrap-mode: nowrap; background-color: rgb(255, 255, 255);&quot;&gt;+ LoadList()&lt;/span&gt;" style="text;strokeColor=light-dark(#000000,#512D2B);fillColor=default;align=left;verticalAlign=top;spacingLeft=4;spacingRight=4;overflow=hidden;rotatable=0;points=[[0,0.5],[1,0.5]];portConstraint=eastwest;whiteSpace=wrap;html=1;" parent="bxJik_AMvIZyw83LSy6p-143" vertex="1">
          <mxGeometry y="23" width="182" height="26" as="geometry" />
        </mxCell>
        <mxCell id="bxJik_AMvIZyw83LSy6p-145" value="&lt;span style=&quot;font-size: 11px; text-align: center; text-wrap-mode: nowrap; background-color: rgb(255, 255, 255);&quot;&gt;+ ShowResults()&lt;/span&gt;" style="text;strokeColor=light-dark(#000000,#512D2B);fillColor=default;align=left;verticalAlign=top;spacingLeft=4;spacingRight=4;overflow=hidden;rotatable=0;points=[[0,0.5],[1,0.5]];portConstraint=eastwest;whiteSpace=wrap;html=1;" parent="bxJik_AMvIZyw83LSy6p-143" vertex="1">
          <mxGeometry y="49" width="182" height="26" as="geometry" />
        </mxCell>
        <mxCell id="bxJik_AMvIZyw83LSy6p-146" value="&lt;span style=&quot;font-size: 11px; text-align: center; text-wrap-mode: nowrap; background-color: rgb(255, 255, 255);&quot;&gt;+ AvailCheck()&lt;/span&gt;" style="text;strokeColor=light-dark(#000000,#512D2B);fillColor=default;align=left;verticalAlign=top;spacingLeft=4;spacingRight=4;overflow=hidden;rotatable=0;points=[[0,0.5],[1,0.5]];portConstraint=eastwest;whiteSpace=wrap;html=1;" parent="bxJik_AMvIZyw83LSy6p-143" vertex="1">
          <mxGeometry y="75" width="182" height="26" as="geometry" />
        </mxCell>
        <mxCell id="bxJik_AMvIZyw83LSy6p-147" value="&lt;span style=&quot;font-size: 11px; text-align: center; text-wrap-mode: nowrap; background-color: rgb(255, 255, 255);&quot;&gt;+ PointCheck()&lt;/span&gt;" style="text;strokeColor=light-dark(#000000,#512D2B);fillColor=default;align=left;verticalAlign=top;spacingLeft=4;spacingRight=4;overflow=hidden;rotatable=0;points=[[0,0.5],[1,0.5]];portConstraint=eastwest;whiteSpace=wrap;html=1;" parent="bxJik_AMvIZyw83LSy6p-143" vertex="1">
          <mxGeometry y="101" width="182" height="26" as="geometry" />
        </mxCell>
        <mxCell id="bxJik_AMvIZyw83LSy6p-148" value="&lt;span style=&quot;font-size: 11px; text-align: center; text-wrap-mode: nowrap; background-color: rgb(255, 255, 255);&quot;&gt;+ CreateRsvr()&lt;/span&gt;" style="text;strokeColor=light-dark(#000000,#512D2B);fillColor=default;align=left;verticalAlign=top;spacingLeft=4;spacingRight=4;overflow=hidden;rotatable=0;points=[[0,0.5],[1,0.5]];portConstraint=eastwest;whiteSpace=wrap;html=1;" parent="bxJik_AMvIZyw83LSy6p-143" vertex="1">
          <mxGeometry y="127" width="182" height="26" as="geometry" />
        </mxCell>
        <mxCell id="bxJik_AMvIZyw83LSy6p-149" value="&lt;span style=&quot;font-size: 11px; text-align: center; text-wrap-mode: nowrap; background-color: rgb(255, 255, 255);&quot;&gt;+ RemovePoints()&lt;/span&gt;" style="text;strokeColor=light-dark(#000000,#512D2B);fillColor=default;align=left;verticalAlign=top;spacingLeft=4;spacingRight=4;overflow=hidden;rotatable=0;points=[[0,0.5],[1,0.5]];portConstraint=eastwest;whiteSpace=wrap;html=1;" parent="bxJik_AMvIZyw83LSy6p-143" vertex="1">
          <mxGeometry y="153" width="182" height="26" as="geometry" />
        </mxCell>
        <mxCell id="bxJik_AMvIZyw83LSy6p-150" value="&lt;span style=&quot;font-size: 11px; text-align: center; text-wrap-mode: nowrap; background-color: rgb(255, 255, 255);&quot;&gt;+ ShowError():void&lt;/span&gt;" style="text;strokeColor=light-dark(#000000,#512D2B);fillColor=default;align=left;verticalAlign=top;spacingLeft=4;spacingRight=4;overflow=hidden;rotatable=0;points=[[0,0.5],[1,0.5]];portConstraint=eastwest;whiteSpace=wrap;html=1;" parent="bxJik_AMvIZyw83LSy6p-143" vertex="1">
          <mxGeometry y="179" width="182" height="26" as="geometry" />
        </mxCell>
        <mxCell id="bxJik_AMvIZyw83LSy6p-151" value="Rsvt_Scr" style="swimlane;whiteSpace=wrap;html=1;startSize=23;fillColor=#f8cecc;strokeColor=#b85450;" parent="1" vertex="1">
          <mxGeometry x="-161" y="956" width="170" height="97" as="geometry">
            <mxRectangle x="200" y="320" width="120" height="30" as="alternateBounds" />
          </mxGeometry>
        </mxCell>
        <mxCell id="bxJik_AMvIZyw83LSy6p-152" value="+ display(): void" style="text;strokeColor=light-dark(#000000,#512D2B);fillColor=default;align=left;verticalAlign=top;spacingLeft=4;spacingRight=4;overflow=hidden;rotatable=0;points=[[0,0.5],[1,0.5]];portConstraint=eastwest;whiteSpace=wrap;html=1;" parent="bxJik_AMvIZyw83LSy6p-151" vertex="1">
          <mxGeometry y="20" width="170" height="26" as="geometry" />
        </mxCell>
        <mxCell id="bxJik_AMvIZyw83LSy6p-153" value="&lt;span style=&quot;font-size: 11px; text-align: center; text-wrap-mode: nowrap; background-color: rgb(255, 255, 255);&quot;&gt;+ ErrorMessage(): void&lt;/span&gt;" style="text;strokeColor=light-dark(#000000,#512D2B);fillColor=default;align=left;verticalAlign=top;spacingLeft=4;spacingRight=4;overflow=hidden;rotatable=0;points=[[0,0.5],[1,0.5]];portConstraint=eastwest;whiteSpace=wrap;html=1;" parent="bxJik_AMvIZyw83LSy6p-151" vertex="1">
          <mxGeometry y="46" width="170" height="26" as="geometry" />
        </mxCell>
        <mxCell id="bxJik_AMvIZyw83LSy6p-154" value="&lt;span style=&quot;font-size: 11px; text-align: center; text-wrap-mode: nowrap; background-color: rgb(255, 255, 255);&quot;&gt;+ SubmitButton(): void&lt;/span&gt;" style="text;strokeColor=light-dark(#000000,#512D2B);fillColor=default;align=left;verticalAlign=top;spacingLeft=4;spacingRight=4;overflow=hidden;rotatable=0;points=[[0,0.5],[1,0.5]];portConstraint=eastwest;whiteSpace=wrap;html=1;" parent="bxJik_AMvIZyw83LSy6p-151" vertex="1">
          <mxGeometry y="71" width="170" height="26" as="geometry" />
        </mxCell>
        <mxCell id="bxJik_AMvIZyw83LSy6p-155" value="Check_Rsvt_Scr" style="swimlane;whiteSpace=wrap;html=1;startSize=23;fillColor=#f8cecc;strokeColor=#b85450;" parent="1" vertex="1">
          <mxGeometry x="-161" y="1110" width="170" height="46" as="geometry">
            <mxRectangle x="200" y="320" width="120" height="30" as="alternateBounds" />
          </mxGeometry>
        </mxCell>
        <mxCell id="bxJik_AMvIZyw83LSy6p-156" value="+ display(): void" style="text;strokeColor=light-dark(#000000,#512D2B);fillColor=default;align=left;verticalAlign=top;spacingLeft=4;spacingRight=4;overflow=hidden;rotatable=0;points=[[0,0.5],[1,0.5]];portConstraint=eastwest;whiteSpace=wrap;html=1;" parent="bxJik_AMvIZyw83LSy6p-155" vertex="1">
          <mxGeometry y="20" width="170" height="26" as="geometry" />
        </mxCell>
        <mxCell id="bxJik_AMvIZyw83LSy6p-157" value="Reservation" style="swimlane;whiteSpace=wrap;html=1;fillColor=#f8cecc;strokeColor=#b85450;" parent="1" vertex="1">
          <mxGeometry x="122" y="1181" width="164" height="146" as="geometry" />
        </mxCell>
        <mxCell id="bxJik_AMvIZyw83LSy6p-158" value="# Reservation_id: int" style="text;strokeColor=light-dark(#000000,#512D2B);fillColor=default;align=left;verticalAlign=top;spacingLeft=4;spacingRight=4;overflow=hidden;rotatable=0;points=[[0,0.5],[1,0.5]];portConstraint=eastwest;whiteSpace=wrap;html=1;" parent="bxJik_AMvIZyw83LSy6p-157" vertex="1">
          <mxGeometry y="23" width="164" height="30" as="geometry" />
        </mxCell>
        <mxCell id="bxJik_AMvIZyw83LSy6p-159" value="# Reservation_list:&amp;nbsp;&lt;br&gt;&lt;div&gt;&lt;span style=&quot;background-color: transparent; color: light-dark(rgb(0, 0, 0), rgb(255, 255, 255));&quot;&gt;Reservation&lt;/span&gt;&lt;span style=&quot;background-color: transparent; color: light-dark(rgb(0, 0, 0), rgb(255, 255, 255));&quot;&gt;[]&lt;/span&gt;&lt;/div&gt;" style="text;strokeColor=light-dark(#000000,#512D2B);fillColor=default;align=left;verticalAlign=top;spacingLeft=4;spacingRight=4;overflow=hidden;rotatable=0;points=[[0,0.5],[1,0.5]];portConstraint=eastwest;whiteSpace=wrap;html=1;" parent="bxJik_AMvIZyw83LSy6p-157" vertex="1">
          <mxGeometry y="78" width="164" height="42" as="geometry" />
        </mxCell>
        <mxCell id="bxJik_AMvIZyw83LSy6p-160" value="# Reservation_desc: string[]" style="text;strokeColor=light-dark(#000000,#512D2B);fillColor=default;align=left;verticalAlign=top;spacingLeft=4;spacingRight=4;overflow=hidden;rotatable=0;points=[[0,0.5],[1,0.5]];portConstraint=eastwest;whiteSpace=wrap;html=1;" parent="bxJik_AMvIZyw83LSy6p-157" vertex="1">
          <mxGeometry y="50" width="164" height="28" as="geometry" />
        </mxCell>
        <mxCell id="bxJik_AMvIZyw83LSy6p-161" value="# addResToList()" style="text;strokeColor=light-dark(#000000,#512D2B);fillColor=default;align=left;verticalAlign=top;spacingLeft=4;spacingRight=4;overflow=hidden;rotatable=0;points=[[0,0.5],[1,0.5]];portConstraint=eastwest;whiteSpace=wrap;html=1;" parent="bxJik_AMvIZyw83LSy6p-157" vertex="1">
          <mxGeometry y="116" width="164" height="30" as="geometry" />
        </mxCell>
        <mxCell id="bxJik_AMvIZyw83LSy6p-162" value="" style="endArrow=none;html=1;rounded=0;entryX=0;entryY=0.5;entryDx=0;entryDy=0;exitX=1;exitY=0.5;exitDx=0;exitDy=0;" parent="1" source="bxJik_AMvIZyw83LSy6p-147" target="bxJik_AMvIZyw83LSy6p-132" edge="1">
          <mxGeometry width="50" height="50" relative="1" as="geometry">
            <mxPoint x="309" y="1035" as="sourcePoint" />
            <mxPoint x="880" y="843" as="targetPoint" />
          </mxGeometry>
        </mxCell>
        <mxCell id="bxJik_AMvIZyw83LSy6p-164" value="" style="endArrow=none;html=1;rounded=0;entryX=0.5;entryY=1;entryDx=0;entryDy=0;exitX=0.5;exitY=0;exitDx=0;exitDy=0;" parent="1" source="bxJik_AMvIZyw83LSy6p-157" target="bxJik_AMvIZyw83LSy6p-143" edge="1">
          <mxGeometry width="50" height="50" relative="1" as="geometry">
            <mxPoint x="231" y="1157" as="sourcePoint" />
            <mxPoint x="802" y="965" as="targetPoint" />
          </mxGeometry>
        </mxCell>
        <mxCell id="bxJik_AMvIZyw83LSy6p-165" value="" style="endArrow=none;html=1;rounded=0;entryX=0;entryY=0.5;entryDx=0;entryDy=0;exitX=1;exitY=0.5;exitDx=0;exitDy=0;" parent="1" source="bxJik_AMvIZyw83LSy6p-153" target="bxJik_AMvIZyw83LSy6p-143" edge="1">
          <mxGeometry width="50" height="50" relative="1" as="geometry">
            <mxPoint x="305" y="1037" as="sourcePoint" />
            <mxPoint x="438" y="1035" as="targetPoint" />
          </mxGeometry>
        </mxCell>
        <mxCell id="bxJik_AMvIZyw83LSy6p-166" value="" style="endArrow=none;html=1;rounded=0;entryX=0;entryY=1;entryDx=0;entryDy=0;exitX=1;exitY=0;exitDx=0;exitDy=0;" parent="1" source="bxJik_AMvIZyw83LSy6p-143" target="bxJik_AMvIZyw83LSy6p-40" edge="1">
          <mxGeometry width="50" height="50" relative="1" as="geometry">
            <mxPoint x="310" y="728" as="sourcePoint" />
            <mxPoint x="443" y="726" as="targetPoint" />
          </mxGeometry>
        </mxCell>
        <mxCell id="bxJik_AMvIZyw83LSy6p-167" value="" style="endArrow=none;html=1;rounded=0;entryX=0;entryY=0.5;entryDx=0;entryDy=0;exitX=1;exitY=0.5;exitDx=0;exitDy=0;" parent="1" source="bxJik_AMvIZyw83LSy6p-155" target="bxJik_AMvIZyw83LSy6p-148" edge="1">
          <mxGeometry width="50" height="50" relative="1" as="geometry">
            <mxPoint x="30" y="1058" as="sourcePoint" />
            <mxPoint x="163" y="1056" as="targetPoint" />
          </mxGeometry>
        </mxCell>
        <mxCell id="bxJik_AMvIZyw83LSy6p-168" value="&lt;span style=&quot;font-weight: 700;&quot;&gt;Receipts_Mngr_Scr&lt;/span&gt;" style="swimlane;fontStyle=0;childLayout=stackLayout;horizontal=1;startSize=26;fillColor=#f8cecc;horizontalStack=0;resizeParent=1;resizeParentMax=0;resizeLast=0;collapsible=1;marginBottom=0;whiteSpace=wrap;html=1;strokeColor=#b85450;" parent="1" vertex="1">
          <mxGeometry x="1124.5" y="-92" width="240" height="130" as="geometry" />
        </mxCell>
        <mxCell id="bxJik_AMvIZyw83LSy6p-169" value="+ sendFormData()" style="text;strokeColor=light-dark(#000000,#512D2B);fillColor=default;align=left;verticalAlign=top;spacingLeft=4;spacingRight=4;overflow=hidden;rotatable=0;points=[[0,0.5],[1,0.5]];portConstraint=eastwest;whiteSpace=wrap;html=1;" parent="bxJik_AMvIZyw83LSy6p-168" vertex="1">
          <mxGeometry y="26" width="240" height="26" as="geometry" />
        </mxCell>
        <mxCell id="bxJik_AMvIZyw83LSy6p-170" value="+ uploadButton(): void" style="text;strokeColor=light-dark(#000000,#512D2B);fillColor=default;align=left;verticalAlign=top;spacingLeft=4;spacingRight=4;overflow=hidden;rotatable=0;points=[[0,0.5],[1,0.5]];portConstraint=eastwest;whiteSpace=wrap;html=1;" parent="bxJik_AMvIZyw83LSy6p-168" vertex="1">
          <mxGeometry y="52" width="240" height="26" as="geometry" />
        </mxCell>
        <mxCell id="bxJik_AMvIZyw83LSy6p-171" value="+ checkData(): void" style="text;strokeColor=light-dark(#000000,#512D2B);fillColor=default;align=left;verticalAlign=top;spacingLeft=4;spacingRight=4;overflow=hidden;rotatable=0;points=[[0,0.5],[1,0.5]];portConstraint=eastwest;whiteSpace=wrap;html=1;" parent="bxJik_AMvIZyw83LSy6p-168" vertex="1">
          <mxGeometry y="78" width="240" height="26" as="geometry" />
        </mxCell>
        <mxCell id="bxJik_AMvIZyw83LSy6p-172" value="+ display(): void" style="text;strokeColor=light-dark(#000000,#512D2B);fillColor=default;align=left;verticalAlign=top;spacingLeft=4;spacingRight=4;overflow=hidden;rotatable=0;points=[[0,0.5],[1,0.5]];portConstraint=eastwest;whiteSpace=wrap;html=1;" parent="bxJik_AMvIZyw83LSy6p-168" vertex="1">
          <mxGeometry y="104" width="240" height="26" as="geometry" />
        </mxCell>
        <mxCell id="bxJik_AMvIZyw83LSy6p-173" value="&lt;span style=&quot;font-weight: 700;&quot;&gt;ManageReceiptClass&lt;/span&gt;" style="swimlane;fontStyle=0;childLayout=stackLayout;horizontal=1;startSize=26;fillColor=#f8cecc;horizontalStack=0;resizeParent=1;resizeParentMax=0;resizeLast=0;collapsible=1;marginBottom=0;whiteSpace=wrap;html=1;strokeColor=#b85450;" parent="1" vertex="1">
          <mxGeometry x="790" y="102" width="240" height="104" as="geometry" />
        </mxCell>
        <mxCell id="bxJik_AMvIZyw83LSy6p-174" value="+ queryReceiptList()" style="text;strokeColor=light-dark(#000000,#512D2B);fillColor=default;align=left;verticalAlign=top;spacingLeft=4;spacingRight=4;overflow=hidden;rotatable=0;points=[[0,0.5],[1,0.5]];portConstraint=eastwest;whiteSpace=wrap;html=1;" parent="bxJik_AMvIZyw83LSy6p-173" vertex="1">
          <mxGeometry y="26" width="240" height="26" as="geometry" />
        </mxCell>
        <mxCell id="bxJik_AMvIZyw83LSy6p-175" value="+ updateReceiptList(): void" style="text;strokeColor=light-dark(#000000,#512D2B);fillColor=default;align=left;verticalAlign=top;spacingLeft=4;spacingRight=4;overflow=hidden;rotatable=0;points=[[0,0.5],[1,0.5]];portConstraint=eastwest;whiteSpace=wrap;html=1;" parent="bxJik_AMvIZyw83LSy6p-173" vertex="1">
          <mxGeometry y="52" width="240" height="26" as="geometry" />
        </mxCell>
        <mxCell id="bxJik_AMvIZyw83LSy6p-176" value="+ showReceiptList(): void" style="text;strokeColor=light-dark(#000000,#512D2B);fillColor=default;align=left;verticalAlign=top;spacingLeft=4;spacingRight=4;overflow=hidden;rotatable=0;points=[[0,0.5],[1,0.5]];portConstraint=eastwest;whiteSpace=wrap;html=1;" parent="bxJik_AMvIZyw83LSy6p-173" vertex="1">
          <mxGeometry y="78" width="240" height="26" as="geometry" />
        </mxCell>
        <mxCell id="bxJik_AMvIZyw83LSy6p-178" value="Receipt" style="swimlane;whiteSpace=wrap;html=1;startSize=20;fillColor=#f8cecc;strokeColor=#b85450;" parent="1" vertex="1">
          <mxGeometry x="1155" y="126" width="179" height="52" as="geometry" />
        </mxCell>
        <mxCell id="bxJik_AMvIZyw83LSy6p-179" value="+ ReceiptList: Receipt[]" style="text;strokeColor=light-dark(#000000,#512D2B);fillColor=default;align=left;verticalAlign=top;spacingLeft=4;spacingRight=4;overflow=hidden;rotatable=0;points=[[0,0.5],[1,0.5]];portConstraint=eastwest;whiteSpace=wrap;html=1;" parent="bxJik_AMvIZyw83LSy6p-178" vertex="1">
          <mxGeometry y="19" width="179" height="33" as="geometry" />
        </mxCell>
        <mxCell id="bxJik_AMvIZyw83LSy6p-180" value="&lt;span style=&quot;font-weight: 700;&quot;&gt;Com_Charges_Scr&lt;/span&gt;" style="swimlane;fontStyle=0;childLayout=stackLayout;horizontal=1;startSize=26;fillColor=light-dark(#F8CECC,#512D2B);horizontalStack=0;resizeParent=1;resizeParentMax=0;resizeLast=0;collapsible=1;marginBottom=0;whiteSpace=wrap;html=1;strokeColor=light-dark(#000000,#512D2B);" parent="1" vertex="1">
          <mxGeometry x="1430" y="-92" width="240" height="78" as="geometry" />
        </mxCell>
        <mxCell id="bxJik_AMvIZyw83LSy6p-181" value="+ display(): void" style="text;strokeColor=light-dark(#000000,#512D2B);fillColor=default;align=left;verticalAlign=top;spacingLeft=4;spacingRight=4;overflow=hidden;rotatable=0;points=[[0,0.5],[1,0.5]];portConstraint=eastwest;whiteSpace=wrap;html=1;" parent="bxJik_AMvIZyw83LSy6p-180" vertex="1">
          <mxGeometry y="26" width="240" height="26" as="geometry" />
        </mxCell>
        <mxCell id="bxJik_AMvIZyw83LSy6p-182" value="+publicCommonChargesButton(): void" style="text;strokeColor=light-dark(#000000,#512D2B);fillColor=default;align=left;verticalAlign=top;spacingLeft=4;spacingRight=4;overflow=hidden;rotatable=0;points=[[0,0.5],[1,0.5]];portConstraint=eastwest;whiteSpace=wrap;html=1;" parent="bxJik_AMvIZyw83LSy6p-180" vertex="1">
          <mxGeometry y="52" width="240" height="26" as="geometry" />
        </mxCell>
        <mxCell id="bxJik_AMvIZyw83LSy6p-183" value="&lt;span style=&quot;font-weight: 700;&quot;&gt;ManageComChargesClass&lt;/span&gt;" style="swimlane;fontStyle=0;childLayout=stackLayout;horizontal=1;startSize=26;fillColor=light-dark(#F8CECC,#512D2B);horizontalStack=0;resizeParent=1;resizeParentMax=0;resizeLast=0;collapsible=1;marginBottom=0;whiteSpace=wrap;html=1;strokeColor=light-dark(#000000,#512D2B);" parent="1" vertex="1">
          <mxGeometry x="1430" y="29" width="240" height="104" as="geometry" />
        </mxCell>
        <mxCell id="bxJik_AMvIZyw83LSy6p-184" value="+ getReceiptAmount()" style="text;strokeColor=light-dark(#000000,#512D2B);fillColor=default;align=left;verticalAlign=top;spacingLeft=4;spacingRight=4;overflow=hidden;rotatable=0;points=[[0,0.5],[1,0.5]];portConstraint=eastwest;whiteSpace=wrap;html=1;" parent="bxJik_AMvIZyw83LSy6p-183" vertex="1">
          <mxGeometry y="26" width="240" height="26" as="geometry" />
        </mxCell>
        <mxCell id="bxJik_AMvIZyw83LSy6p-185" value="+&amp;nbsp;&lt;span style=&quot;text-align: center; text-wrap-mode: nowrap;&quot;&gt;calcutateCommonCharges()&lt;/span&gt;" style="text;strokeColor=light-dark(#000000,#512D2B);fillColor=default;align=left;verticalAlign=top;spacingLeft=4;spacingRight=4;overflow=hidden;rotatable=0;points=[[0,0.5],[1,0.5]];portConstraint=eastwest;whiteSpace=wrap;html=1;" parent="bxJik_AMvIZyw83LSy6p-183" vertex="1">
          <mxGeometry y="52" width="240" height="26" as="geometry" />
        </mxCell>
        <mxCell id="bxJik_AMvIZyw83LSy6p-186" value="+displayResults()" style="text;strokeColor=light-dark(#000000,#512D2B);fillColor=default;align=left;verticalAlign=top;spacingLeft=4;spacingRight=4;overflow=hidden;rotatable=0;points=[[0,0.5],[1,0.5]];portConstraint=eastwest;whiteSpace=wrap;html=1;" parent="bxJik_AMvIZyw83LSy6p-183" vertex="1">
          <mxGeometry y="78" width="240" height="26" as="geometry" />
        </mxCell>
        <mxCell id="bxJik_AMvIZyw83LSy6p-187" value="&lt;span style=&quot;font-weight: 700;&quot;&gt;QuickPrevScr&lt;/span&gt;" style="swimlane;fontStyle=0;childLayout=stackLayout;horizontal=1;startSize=26;fillColor=#f8cecc;horizontalStack=0;resizeParent=1;resizeParentMax=0;resizeLast=0;collapsible=1;marginBottom=0;whiteSpace=wrap;html=1;strokeColor=#b85450;" parent="1" vertex="1">
          <mxGeometry x="1880" y="-176" width="240" height="130" as="geometry" />
        </mxCell>
        <mxCell id="bxJik_AMvIZyw83LSy6p-188" value="&lt;span style=&quot;text-align: center; text-wrap-mode: nowrap;&quot;&gt;+submitButton(): void&lt;/span&gt;" style="text;strokeColor=light-dark(#000000,#512D2B);fillColor=default;align=left;verticalAlign=top;spacingLeft=4;spacingRight=4;overflow=hidden;rotatable=0;points=[[0,0.5],[1,0.5]];portConstraint=eastwest;whiteSpace=wrap;html=1;" parent="bxJik_AMvIZyw83LSy6p-187" vertex="1">
          <mxGeometry y="26" width="240" height="26" as="geometry" />
        </mxCell>
        <mxCell id="bxJik_AMvIZyw83LSy6p-189" value="&lt;span style=&quot;text-align: center; text-wrap-mode: nowrap;&quot;&gt;+displayCancelMessage()&lt;/span&gt;" style="text;strokeColor=light-dark(#000000,#512D2B);fillColor=default;align=left;verticalAlign=top;spacingLeft=4;spacingRight=4;overflow=hidden;rotatable=0;points=[[0,0.5],[1,0.5]];portConstraint=eastwest;whiteSpace=wrap;html=1;" parent="bxJik_AMvIZyw83LSy6p-187" vertex="1">
          <mxGeometry y="52" width="240" height="26" as="geometry" />
        </mxCell>
        <mxCell id="bxJik_AMvIZyw83LSy6p-190" value="&lt;span style=&quot;text-align: center; text-wrap-mode: nowrap;&quot;&gt;+queryCommonChargesInfo()&lt;/span&gt;" style="text;strokeColor=light-dark(#000000,#512D2B);fillColor=default;align=left;verticalAlign=top;spacingLeft=4;spacingRight=4;overflow=hidden;rotatable=0;points=[[0,0.5],[1,0.5]];portConstraint=eastwest;whiteSpace=wrap;html=1;" parent="bxJik_AMvIZyw83LSy6p-187" vertex="1">
          <mxGeometry y="78" width="240" height="26" as="geometry" />
        </mxCell>
        <mxCell id="bxJik_AMvIZyw83LSy6p-191" value="&lt;span style=&quot;text-align: center; text-wrap-mode: nowrap;&quot;&gt;+&lt;/span&gt;&lt;span style=&quot;text-align: center; text-wrap-mode: nowrap;&quot;&gt;displayCancelMessage()&lt;/span&gt;" style="text;strokeColor=light-dark(#000000,#512D2B);fillColor=default;align=left;verticalAlign=top;spacingLeft=4;spacingRight=4;overflow=hidden;rotatable=0;points=[[0,0.5],[1,0.5]];portConstraint=eastwest;whiteSpace=wrap;html=1;" parent="bxJik_AMvIZyw83LSy6p-187" vertex="1">
          <mxGeometry y="104" width="240" height="26" as="geometry" />
        </mxCell>
        <mxCell id="bxJik_AMvIZyw83LSy6p-192" value="&lt;span style=&quot;text-wrap-mode: nowrap;&quot;&gt;&lt;b&gt;ManageNotification&lt;/b&gt;&lt;/span&gt;" style="swimlane;fontStyle=0;childLayout=stackLayout;horizontal=1;startSize=26;fillColor=#f8cecc;horizontalStack=0;resizeParent=1;resizeParentMax=0;resizeLast=0;collapsible=1;marginBottom=0;whiteSpace=wrap;html=1;strokeColor=#b85450;" parent="1" vertex="1">
          <mxGeometry x="665" y="671" width="205" height="57" as="geometry" />
        </mxCell>
        <mxCell id="bxJik_AMvIZyw83LSy6p-193" value="&lt;span style=&quot;text-align: center; text-wrap-mode: nowrap;&quot;&gt;+displayNotifications()&lt;/span&gt;" style="text;strokeColor=light-dark(#000000,#512D2B);fillColor=default;align=left;verticalAlign=top;spacingLeft=4;spacingRight=4;overflow=hidden;rotatable=0;points=[[0,0.5],[1,0.5]];portConstraint=eastwest;whiteSpace=wrap;html=1;" parent="bxJik_AMvIZyw83LSy6p-192" vertex="1">
          <mxGeometry y="26" width="205" height="31" as="geometry" />
        </mxCell>
        <mxCell id="bxJik_AMvIZyw83LSy6p-194" value="" style="text;strokeColor=light-dark(#000000,#512D2B);fillColor=default;align=left;verticalAlign=top;spacingLeft=4;spacingRight=4;overflow=hidden;rotatable=0;points=[[0,0.5],[1,0.5]];portConstraint=eastwest;whiteSpace=wrap;html=1;" parent="bxJik_AMvIZyw83LSy6p-192" vertex="1">
          <mxGeometry y="57" width="205" as="geometry" />
        </mxCell>
        <mxCell id="bxJik_AMvIZyw83LSy6p-199" value="" style="endArrow=none;html=1;rounded=0;exitX=1;exitY=0.25;exitDx=0;exitDy=0;entryX=0;entryY=0.5;entryDx=0;entryDy=0;" parent="1" source="bxJik_AMvIZyw83LSy6p-10" target="bxJik_AMvIZyw83LSy6p-173" edge="1">
          <mxGeometry width="50" height="50" relative="1" as="geometry">
            <mxPoint x="680" y="222" as="sourcePoint" />
            <mxPoint x="770" y="221" as="targetPoint" />
          </mxGeometry>
        </mxCell>
        <mxCell id="bxJik_AMvIZyw83LSy6p-200" value="" style="endArrow=none;html=1;rounded=0;exitX=1;exitY=0.5;exitDx=0;exitDy=0;entryX=0;entryY=0.5;entryDx=0;entryDy=0;" parent="1" source="bxJik_AMvIZyw83LSy6p-173" target="bxJik_AMvIZyw83LSy6p-178" edge="1">
          <mxGeometry width="50" height="50" relative="1" as="geometry">
            <mxPoint x="1085" y="136" as="sourcePoint" />
            <mxPoint x="1175" y="135" as="targetPoint" />
          </mxGeometry>
        </mxCell>
        <mxCell id="bxJik_AMvIZyw83LSy6p-201" value="" style="endArrow=none;html=1;rounded=0;exitX=1;exitY=0;exitDx=0;exitDy=0;entryX=0.25;entryY=1;entryDx=0;entryDy=0;" parent="1" source="bxJik_AMvIZyw83LSy6p-173" target="bxJik_AMvIZyw83LSy6p-168" edge="1">
          <mxGeometry width="50" height="50" relative="1" as="geometry">
            <mxPoint x="1276" y="64" as="sourcePoint" />
            <mxPoint x="1366" y="63" as="targetPoint" />
          </mxGeometry>
        </mxCell>
        <mxCell id="bxJik_AMvIZyw83LSy6p-202" value="" style="endArrow=none;html=1;rounded=0;exitX=1;exitY=0.25;exitDx=0;exitDy=0;entryX=0;entryY=0.25;entryDx=0;entryDy=0;" parent="1" source="bxJik_AMvIZyw83LSy6p-173" target="bxJik_AMvIZyw83LSy6p-183" edge="1">
          <mxGeometry width="50" height="50" relative="1" as="geometry">
            <mxPoint x="1190" y="85" as="sourcePoint" />
            <mxPoint x="1280" y="84" as="targetPoint" />
          </mxGeometry>
        </mxCell>
        <mxCell id="bxJik_AMvIZyw83LSy6p-203" value="" style="endArrow=none;html=1;rounded=0;exitX=1;exitY=0.5;exitDx=0;exitDy=0;entryX=0;entryY=0.5;entryDx=0;entryDy=0;" parent="1" source="bxJik_AMvIZyw83LSy6p-178" target="bxJik_AMvIZyw83LSy6p-183" edge="1">
          <mxGeometry width="50" height="50" relative="1" as="geometry">
            <mxPoint x="1421" y="182" as="sourcePoint" />
            <mxPoint x="1511" y="181" as="targetPoint" />
          </mxGeometry>
        </mxCell>
        <mxCell id="bxJik_AMvIZyw83LSy6p-204" value="" style="endArrow=none;html=1;rounded=0;exitX=0.5;exitY=0;exitDx=0;exitDy=0;entryX=0.5;entryY=1;entryDx=0;entryDy=0;" parent="1" source="bxJik_AMvIZyw83LSy6p-183" target="bxJik_AMvIZyw83LSy6p-180" edge="1">
          <mxGeometry width="50" height="50" relative="1" as="geometry">
            <mxPoint x="1791" y="-8" as="sourcePoint" />
            <mxPoint x="1881" y="-9" as="targetPoint" />
          </mxGeometry>
        </mxCell>
        <mxCell id="bxJik_AMvIZyw83LSy6p-205" value="" style="endArrow=none;html=1;rounded=0;exitX=1;exitY=0.25;exitDx=0;exitDy=0;entryX=0;entryY=0.5;entryDx=0;entryDy=0;" parent="1" source="bxJik_AMvIZyw83LSy6p-183" target="bxJik_AMvIZyw83LSy6p-190" edge="1">
          <mxGeometry width="50" height="50" relative="1" as="geometry">
            <mxPoint x="1716" y="78" as="sourcePoint" />
            <mxPoint x="1806" y="77" as="targetPoint" />
          </mxGeometry>
        </mxCell>
        <mxCell id="bxJik_AMvIZyw83LSy6p-206" value="" style="endArrow=none;html=1;rounded=0;exitX=1;exitY=0.5;exitDx=0;exitDy=0;entryX=0;entryY=0.5;entryDx=0;entryDy=0;" parent="1" source="bxJik_AMvIZyw83LSy6p-72" target="bxJik_AMvIZyw83LSy6p-189" edge="1">
          <mxGeometry width="50" height="50" relative="1" as="geometry">
            <mxPoint x="1066" y="-176" as="sourcePoint" />
            <mxPoint x="1156" y="-177" as="targetPoint" />
          </mxGeometry>
        </mxCell>
        <mxCell id="bxJik_AMvIZyw83LSy6p-207" value="" style="endArrow=none;html=1;rounded=0;entryX=0.25;entryY=0;entryDx=0;entryDy=0;exitX=1;exitY=0.5;exitDx=0;exitDy=0;" parent="1" source="bxJik_AMvIZyw83LSy6p-79" target="bxJik_AMvIZyw83LSy6p-192" edge="1">
          <mxGeometry width="50" height="50" relative="1" as="geometry">
            <mxPoint x="593" y="20" as="sourcePoint" />
            <mxPoint x="1072" y="-187" as="targetPoint" />
          </mxGeometry>
        </mxCell>
        <mxCell id="bxJik_AMvIZyw83LSy6p-211" value="" style="endArrow=none;html=1;rounded=0;exitX=1;exitY=0;exitDx=0;exitDy=0;entryX=0.25;entryY=1;entryDx=0;entryDy=0;" parent="1" source="bxJik_AMvIZyw83LSy6p-132" target="bxJik_AMvIZyw83LSy6p-192" edge="1">
          <mxGeometry width="50" height="50" relative="1" as="geometry">
            <mxPoint x="682" y="915" as="sourcePoint" />
            <mxPoint x="772" y="914" as="targetPoint" />
          </mxGeometry>
        </mxCell>
        <mxCell id="bxJik_AMvIZyw83LSy6p-212" value="Common_Charges" style="swimlane;fontStyle=1;align=center;verticalAlign=top;childLayout=stackLayout;horizontal=1;startSize=26;horizontalStack=0;resizeParent=1;resizeParentMax=0;resizeLast=0;collapsible=1;marginBottom=0;whiteSpace=wrap;html=1;fillColor=#f8cecc;strokeColor=#b85450;" parent="1" vertex="1">
          <mxGeometry x="1801" y="51" width="160" height="60" as="geometry" />
        </mxCell>
        <mxCell id="bxJik_AMvIZyw83LSy6p-214" value="" style="line;strokeWidth=1;fillColor=none;align=left;verticalAlign=middle;spacingTop=-1;spacingLeft=3;spacingRight=3;rotatable=0;labelPosition=right;points=[];portConstraint=eastwest;strokeColor=inherit;" parent="bxJik_AMvIZyw83LSy6p-212" vertex="1">
          <mxGeometry y="26" width="160" height="8" as="geometry" />
        </mxCell>
        <mxCell id="bxJik_AMvIZyw83LSy6p-216" value="+&amp;nbsp;&lt;span style=&quot;text-align: center; text-wrap-mode: nowrap;&quot;&gt;calcutateCommonCharges()&lt;/span&gt;" style="text;strokeColor=light-dark(#000000,#512D2B);fillColor=default;align=left;verticalAlign=top;spacingLeft=4;spacingRight=4;overflow=hidden;rotatable=0;points=[[0,0.5],[1,0.5]];portConstraint=eastwest;whiteSpace=wrap;html=1;" parent="bxJik_AMvIZyw83LSy6p-212" vertex="1">
          <mxGeometry y="34" width="160" height="26" as="geometry" />
        </mxCell>
        <mxCell id="bxJik_AMvIZyw83LSy6p-219" value="" style="endArrow=none;html=1;rounded=0;exitX=1;exitY=0.5;exitDx=0;exitDy=0;entryX=0;entryY=0.5;entryDx=0;entryDy=0;" parent="1" source="bxJik_AMvIZyw83LSy6p-183" target="bxJik_AMvIZyw83LSy6p-212" edge="1">
          <mxGeometry width="50" height="50" relative="1" as="geometry">
            <mxPoint x="1709" y="150" as="sourcePoint" />
            <mxPoint x="1799" y="149" as="targetPoint" />
          </mxGeometry>
        </mxCell>
        <mxCell id="bxJik_AMvIZyw83LSy6p-220" value="" style="endArrow=none;html=1;rounded=0;exitX=1;exitY=0.5;exitDx=0;exitDy=0;entryX=0.75;entryY=1;entryDx=0;entryDy=0;" parent="1" source="bxJik_AMvIZyw83LSy6p-212" target="bxJik_AMvIZyw83LSy6p-187" edge="1">
          <mxGeometry width="50" height="50" relative="1" as="geometry">
            <mxPoint x="2018" y="58" as="sourcePoint" />
            <mxPoint x="2053" y="-5" as="targetPoint" />
          </mxGeometry>
        </mxCell>
        <mxCell id="bxJik_AMvIZyw83LSy6p-222" value="Mngr_Poll_Scr" style="swimlane;whiteSpace=wrap;html=1;fillColor=#f8cecc;strokeColor=#b85450;startSize=23;" parent="1" vertex="1">
          <mxGeometry x="113" y="447" width="190" height="204.5" as="geometry" />
        </mxCell>
        <mxCell id="bxJik_AMvIZyw83LSy6p-223" value="+ display(): void" style="text;strokeColor=light-dark(#000000,#512D2B);fillColor=default;align=left;verticalAlign=top;spacingLeft=4;spacingRight=4;overflow=hidden;rotatable=0;points=[[0,0.5],[1,0.5]];portConstraint=eastwest;whiteSpace=wrap;html=1;" parent="bxJik_AMvIZyw83LSy6p-222" vertex="1">
          <mxGeometry y="23" width="190" height="26" as="geometry" />
        </mxCell>
        <mxCell id="bxJik_AMvIZyw83LSy6p-224" value="&lt;span style=&quot;text-align: center; text-wrap-mode: nowrap;&quot;&gt;+ sendFormData(): void&lt;/span&gt;" style="text;strokeColor=light-dark(#000000,#512D2B);fillColor=default;align=left;verticalAlign=top;spacingLeft=4;spacingRight=4;overflow=hidden;rotatable=0;points=[[0,0.5],[1,0.5]];portConstraint=eastwest;whiteSpace=wrap;html=1;" parent="bxJik_AMvIZyw83LSy6p-222" vertex="1">
          <mxGeometry y="49" width="190" height="26" as="geometry" />
        </mxCell>
        <mxCell id="bxJik_AMvIZyw83LSy6p-225" value="&lt;span style=&quot;text-align: center; text-wrap-mode: nowrap;&quot;&gt;+ IncorrectFormMessage(): void&lt;/span&gt;" style="text;strokeColor=light-dark(#000000,#512D2B);fillColor=default;align=left;verticalAlign=top;spacingLeft=4;spacingRight=4;overflow=hidden;rotatable=0;points=[[0,0.5],[1,0.5]];portConstraint=eastwest;whiteSpace=wrap;html=1;" parent="bxJik_AMvIZyw83LSy6p-222" vertex="1">
          <mxGeometry y="75" width="190" height="26" as="geometry" />
        </mxCell>
        <mxCell id="bxJik_AMvIZyw83LSy6p-226" value="&lt;span style=&quot;text-align: center; text-wrap-mode: nowrap;&quot;&gt;+ CheckData()&lt;/span&gt;" style="text;strokeColor=light-dark(#000000,#512D2B);fillColor=default;align=left;verticalAlign=top;spacingLeft=4;spacingRight=4;overflow=hidden;rotatable=0;points=[[0,0.5],[1,0.5]];portConstraint=eastwest;whiteSpace=wrap;html=1;" parent="bxJik_AMvIZyw83LSy6p-222" vertex="1">
          <mxGeometry y="101" width="190" height="26" as="geometry" />
        </mxCell>
        <mxCell id="bxJik_AMvIZyw83LSy6p-227" value="+ Subject: string" style="text;strokeColor=light-dark(#000000,#512D2B);fillColor=default;align=left;verticalAlign=top;spacingLeft=4;spacingRight=4;overflow=hidden;rotatable=0;points=[[0,0.5],[1,0.5]];portConstraint=eastwest;whiteSpace=wrap;html=1;" parent="bxJik_AMvIZyw83LSy6p-222" vertex="1">
          <mxGeometry y="127" width="190" height="26" as="geometry" />
        </mxCell>
        <mxCell id="bxJik_AMvIZyw83LSy6p-228" value="+ duration: int" style="text;strokeColor=light-dark(#000000,#512D2B);fillColor=default;align=left;verticalAlign=top;spacingLeft=4;spacingRight=4;overflow=hidden;rotatable=0;points=[[0,0.5],[1,0.5]];portConstraint=eastwest;whiteSpace=wrap;html=1;" parent="bxJik_AMvIZyw83LSy6p-222" vertex="1">
          <mxGeometry y="153" width="190" height="26" as="geometry" />
        </mxCell>
        <mxCell id="bxJik_AMvIZyw83LSy6p-229" value="+ answers: string[]" style="text;strokeColor=light-dark(#000000,#512D2B);fillColor=default;align=left;verticalAlign=top;spacingLeft=4;spacingRight=4;overflow=hidden;rotatable=0;points=[[0,0.5],[1,0.5]];portConstraint=eastwest;whiteSpace=wrap;html=1;" parent="bxJik_AMvIZyw83LSy6p-222" vertex="1">
          <mxGeometry y="179" width="190" height="26" as="geometry" />
        </mxCell>
        <mxCell id="bxJik_AMvIZyw83LSy6p-230" value="ManagePollClass" style="swimlane;whiteSpace=wrap;html=1;fillColor=#f8cecc;strokeColor=#b85450;startSize=23;" parent="1" vertex="1">
          <mxGeometry x="-245" y="410" width="195" height="180" as="geometry" />
        </mxCell>
        <mxCell id="bxJik_AMvIZyw83LSy6p-231" value="&lt;span style=&quot;text-align: center; text-wrap-mode: nowrap;&quot;&gt;+ queryPollList()&lt;/span&gt;" style="text;strokeColor=light-dark(#000000,#512D2B);fillColor=default;align=left;verticalAlign=top;spacingLeft=4;spacingRight=4;overflow=hidden;rotatable=0;points=[[0,0.5],[1,0.5]];portConstraint=eastwest;whiteSpace=wrap;html=1;" parent="bxJik_AMvIZyw83LSy6p-230" vertex="1">
          <mxGeometry x="1" y="23" width="194" height="26" as="geometry" />
        </mxCell>
        <mxCell id="bxJik_AMvIZyw83LSy6p-232" value="&lt;span style=&quot;text-align: center; text-wrap-mode: nowrap;&quot;&gt;+ displayPollList(): void&lt;/span&gt;" style="text;strokeColor=light-dark(#000000,#512D2B);fillColor=default;align=left;verticalAlign=top;spacingLeft=4;spacingRight=4;overflow=hidden;rotatable=0;points=[[0,0.5],[1,0.5]];portConstraint=eastwest;whiteSpace=wrap;html=1;" parent="bxJik_AMvIZyw83LSy6p-230" vertex="1">
          <mxGeometry x="1" y="49" width="194" height="26" as="geometry" />
        </mxCell>
        <mxCell id="bxJik_AMvIZyw83LSy6p-233" value="&lt;span style=&quot;font-size: 11px; text-align: center; text-wrap-mode: nowrap; background-color: rgb(255, 255, 255);&quot;&gt;+ UpdatePollList(): void&lt;/span&gt;" style="text;strokeColor=light-dark(#000000,#512D2B);fillColor=default;align=left;verticalAlign=top;spacingLeft=4;spacingRight=4;overflow=hidden;rotatable=0;points=[[0,0.5],[1,0.5]];portConstraint=eastwest;whiteSpace=wrap;html=1;" parent="bxJik_AMvIZyw83LSy6p-230" vertex="1">
          <mxGeometry x="1" y="75" width="194" height="26" as="geometry" />
        </mxCell>
        <mxCell id="bxJik_AMvIZyw83LSy6p-234" value="&lt;span style=&quot;text-align: center; text-wrap-mode: nowrap;&quot;&gt;+ calculatePercentage()&lt;/span&gt;" style="text;strokeColor=light-dark(#000000,#512D2B);fillColor=default;align=left;verticalAlign=top;spacingLeft=4;spacingRight=4;overflow=hidden;rotatable=0;points=[[0,0.5],[1,0.5]];portConstraint=eastwest;whiteSpace=wrap;html=1;" parent="bxJik_AMvIZyw83LSy6p-230" vertex="1">
          <mxGeometry x="1" y="101" width="194" height="26" as="geometry" />
        </mxCell>
        <mxCell id="bxJik_AMvIZyw83LSy6p-235" value="&lt;span style=&quot;text-align: center; text-wrap-mode: nowrap;&quot;&gt;+ displayResultsToTenant(): void&lt;/span&gt;" style="text;strokeColor=light-dark(#000000,#512D2B);fillColor=default;align=left;verticalAlign=top;spacingLeft=4;spacingRight=4;overflow=hidden;rotatable=0;points=[[0,0.5],[1,0.5]];portConstraint=eastwest;whiteSpace=wrap;html=1;" parent="bxJik_AMvIZyw83LSy6p-230" vertex="1">
          <mxGeometry x="1" y="127" width="194" height="26" as="geometry" />
        </mxCell>
        <mxCell id="bxJik_AMvIZyw83LSy6p-236" value="&lt;span style=&quot;text-align: center; text-wrap-mode: nowrap;&quot;&gt;+ displayResultsToManager(): void&lt;/span&gt;" style="text;strokeColor=light-dark(#000000,#512D2B);fillColor=default;align=left;verticalAlign=top;spacingLeft=4;spacingRight=4;overflow=hidden;rotatable=0;points=[[0,0.5],[1,0.5]];portConstraint=eastwest;whiteSpace=wrap;html=1;" parent="bxJik_AMvIZyw83LSy6p-230" vertex="1">
          <mxGeometry x="1" y="153" width="194" height="26" as="geometry" />
        </mxCell>
        <mxCell id="bxJik_AMvIZyw83LSy6p-237" value="Poll" style="swimlane;whiteSpace=wrap;html=1;startSize=20;fillColor=#f8cecc;strokeColor=#b85450;" parent="1" vertex="1">
          <mxGeometry x="-210.5" y="674" width="126" height="80" as="geometry" />
        </mxCell>
        <mxCell id="bxJik_AMvIZyw83LSy6p-238" value="+ Poll_id: int" style="text;strokeColor=light-dark(#000000,#512D2B);fillColor=default;align=left;verticalAlign=top;spacingLeft=4;spacingRight=4;overflow=hidden;rotatable=0;points=[[0,0.5],[1,0.5]];portConstraint=eastwest;whiteSpace=wrap;html=1;" parent="bxJik_AMvIZyw83LSy6p-237" vertex="1">
          <mxGeometry y="20" width="126" height="29" as="geometry" />
        </mxCell>
        <mxCell id="bxJik_AMvIZyw83LSy6p-239" value="+ Poll_List: Poll[]" style="text;strokeColor=light-dark(#000000,#512D2B);fillColor=default;align=left;verticalAlign=top;spacingLeft=4;spacingRight=4;overflow=hidden;rotatable=0;points=[[0,0.5],[1,0.5]];portConstraint=eastwest;whiteSpace=wrap;html=1;" parent="bxJik_AMvIZyw83LSy6p-237" vertex="1">
          <mxGeometry y="50" width="126" height="30" as="geometry" />
        </mxCell>
        <mxCell id="bxJik_AMvIZyw83LSy6p-240" value="&lt;span style=&quot;font-weight: 700;&quot;&gt;Tenant_Poll_Scr&lt;/span&gt;" style="swimlane;fontStyle=0;childLayout=stackLayout;horizontal=1;startSize=26;fillColor=#f8cecc;horizontalStack=0;resizeParent=1;resizeParentMax=0;resizeLast=0;collapsible=1;marginBottom=0;whiteSpace=wrap;html=1;strokeColor=#b85450;" parent="1" vertex="1">
          <mxGeometry x="209" y="711" width="124" height="78" as="geometry" />
        </mxCell>
        <mxCell id="bxJik_AMvIZyw83LSy6p-241" value="+ : type" style="text;strokeColor=light-dark(#000000,#512D2B);fillColor=default;align=left;verticalAlign=top;spacingLeft=4;spacingRight=4;overflow=hidden;rotatable=0;points=[[0,0.5],[1,0.5]];portConstraint=eastwest;whiteSpace=wrap;html=1;" parent="bxJik_AMvIZyw83LSy6p-240" vertex="1">
          <mxGeometry y="26" width="124" height="26" as="geometry" />
        </mxCell>
        <mxCell id="bxJik_AMvIZyw83LSy6p-242" value="+ field: type" style="text;strokeColor=light-dark(#000000,#512D2B);fillColor=default;align=left;verticalAlign=top;spacingLeft=4;spacingRight=4;overflow=hidden;rotatable=0;points=[[0,0.5],[1,0.5]];portConstraint=eastwest;whiteSpace=wrap;html=1;" parent="bxJik_AMvIZyw83LSy6p-240" vertex="1">
          <mxGeometry y="52" width="124" height="26" as="geometry" />
        </mxCell>
        <mxCell id="bxJik_AMvIZyw83LSy6p-244" value="" style="endArrow=none;html=1;rounded=0;entryX=0;entryY=0.5;entryDx=0;entryDy=0;exitX=1;exitY=0.25;exitDx=0;exitDy=0;" parent="1" source="bxJik_AMvIZyw83LSy6p-222" target="bxJik_AMvIZyw83LSy6p-18" edge="1">
          <mxGeometry width="50" height="50" relative="1" as="geometry">
            <mxPoint x="204" y="669" as="sourcePoint" />
            <mxPoint x="308" y="669" as="targetPoint" />
          </mxGeometry>
        </mxCell>
        <mxCell id="bxJik_AMvIZyw83LSy6p-245" value="" style="endArrow=none;html=1;rounded=0;exitX=1;exitY=0.5;exitDx=0;exitDy=0;entryX=0;entryY=0.5;entryDx=0;entryDy=0;" parent="1" source="bxJik_AMvIZyw83LSy6p-235" target="bxJik_AMvIZyw83LSy6p-222" edge="1">
          <mxGeometry width="50" height="50" relative="1" as="geometry">
            <mxPoint x="17" y="496" as="sourcePoint" />
            <mxPoint x="60" y="490" as="targetPoint" />
          </mxGeometry>
        </mxCell>
        <mxCell id="bxJik_AMvIZyw83LSy6p-246" value="" style="endArrow=none;html=1;rounded=0;entryX=0.5;entryY=0;entryDx=0;entryDy=0;exitX=0.5;exitY=1;exitDx=0;exitDy=0;" parent="1" source="bxJik_AMvIZyw83LSy6p-230" target="bxJik_AMvIZyw83LSy6p-237" edge="1">
          <mxGeometry width="50" height="50" relative="1" as="geometry">
            <mxPoint x="-56" y="650" as="sourcePoint" />
            <mxPoint x="48" y="650" as="targetPoint" />
          </mxGeometry>
        </mxCell>
        <mxCell id="bxJik_AMvIZyw83LSy6p-247" value="" style="endArrow=none;html=1;rounded=0;entryX=0;entryY=0.5;entryDx=0;entryDy=0;exitX=1;exitY=0;exitDx=0;exitDy=0;" parent="1" source="bxJik_AMvIZyw83LSy6p-230" target="bxJik_AMvIZyw83LSy6p-78" edge="1">
          <mxGeometry width="50" height="50" relative="1" as="geometry">
            <mxPoint x="105" y="316" as="sourcePoint" />
            <mxPoint x="209" y="316" as="targetPoint" />
          </mxGeometry>
        </mxCell>
        <mxCell id="bxJik_AMvIZyw83LSy6p-250" value="" style="endArrow=none;html=1;rounded=0;entryX=0;entryY=0;entryDx=0;entryDy=0;exitX=1;exitY=1;exitDx=0;exitDy=0;" parent="1" source="bxJik_AMvIZyw83LSy6p-240" target="bxJik_AMvIZyw83LSy6p-132" edge="1">
          <mxGeometry width="50" height="50" relative="1" as="geometry">
            <mxPoint x="384" y="794" as="sourcePoint" />
            <mxPoint x="488" y="794" as="targetPoint" />
          </mxGeometry>
        </mxCell>
        <mxCell id="bxJik_AMvIZyw83LSy6p-251" value="" style="endArrow=none;html=1;rounded=0;entryX=0;entryY=0;entryDx=0;entryDy=0;exitX=1;exitY=1;exitDx=0;exitDy=0;" parent="1" source="bxJik_AMvIZyw83LSy6p-230" target="bxJik_AMvIZyw83LSy6p-240" edge="1">
          <mxGeometry width="50" height="50" relative="1" as="geometry">
            <mxPoint x="183" y="662" as="sourcePoint" />
            <mxPoint x="287" y="662" as="targetPoint" />
          </mxGeometry>
        </mxCell>
        <mxCell id="bxJik_AMvIZyw83LSy6p-253" value="&lt;span style=&quot;text-wrap-mode: nowrap;&quot;&gt;&lt;b&gt;ManageNotifClass&lt;/b&gt;&lt;/span&gt;" style="swimlane;fontStyle=0;childLayout=stackLayout;horizontal=1;startSize=26;fillColor=#f8cecc;horizontalStack=0;resizeParent=1;resizeParentMax=0;resizeLast=0;collapsible=1;marginBottom=0;whiteSpace=wrap;html=1;strokeColor=#b85450;" parent="1" vertex="1">
          <mxGeometry x="222" y="200" width="165" height="52" as="geometry" />
        </mxCell>
        <mxCell id="bxJik_AMvIZyw83LSy6p-254" value="&lt;span style=&quot;text-align: center; text-wrap-mode: nowrap;&quot;&gt;+ displayNotifications(): void&lt;/span&gt;" style="text;strokeColor=light-dark(#000000,#512D2B);fillColor=default;align=left;verticalAlign=top;spacingLeft=4;spacingRight=4;overflow=hidden;rotatable=0;points=[[0,0.5],[1,0.5]];portConstraint=eastwest;whiteSpace=wrap;html=1;" parent="bxJik_AMvIZyw83LSy6p-253" vertex="1">
          <mxGeometry y="26" width="165" height="26" as="geometry" />
        </mxCell>
        <mxCell id="bxJik_AMvIZyw83LSy6p-256" value="" style="endArrow=none;html=1;rounded=0;exitX=0.75;exitY=0;exitDx=0;exitDy=0;entryX=0;entryY=1;entryDx=0;entryDy=0;" parent="1" source="bxJik_AMvIZyw83LSy6p-253" target="bxJik_AMvIZyw83LSy6p-72" edge="1">
          <mxGeometry width="50" height="50" relative="1" as="geometry">
            <mxPoint x="327" y="192" as="sourcePoint" />
            <mxPoint x="428" y="26" as="targetPoint" />
          </mxGeometry>
        </mxCell>
        <mxCell id="bxJik_AMvIZyw83LSy6p-257" value="" style="endArrow=none;html=1;rounded=0;exitX=1;exitY=0.5;exitDx=0;exitDy=0;entryX=0.25;entryY=1;entryDx=0;entryDy=0;" parent="1" source="bxJik_AMvIZyw83LSy6p-253" target="bxJik_AMvIZyw83LSy6p-118" edge="1">
          <mxGeometry width="50" height="50" relative="1" as="geometry">
            <mxPoint x="480" y="230" as="sourcePoint" />
            <mxPoint x="463" y="191" as="targetPoint" />
          </mxGeometry>
        </mxCell>
        <mxCell id="LjfHdc1YlkoJMl0Ztrk5-1" value="Manage_Debt" style="swimlane;whiteSpace=wrap;html=1;startSize=23;fillColor=#f8cecc;strokeColor=#b85450;" vertex="1" parent="1">
          <mxGeometry x="772" y="769" width="170" height="97" as="geometry">
            <mxRectangle x="200" y="320" width="120" height="30" as="alternateBounds" />
          </mxGeometry>
        </mxCell>
        <mxCell id="LjfHdc1YlkoJMl0Ztrk5-2" value="&lt;span style=&quot;text-align: center; text-wrap-mode: nowrap;&quot;&gt;+ LoadList()&lt;/span&gt;" style="text;strokeColor=light-dark(#000000,#512D2B);fillColor=default;align=left;verticalAlign=top;spacingLeft=4;spacingRight=4;overflow=hidden;rotatable=0;points=[[0,0.5],[1,0.5]];portConstraint=eastwest;whiteSpace=wrap;html=1;" vertex="1" parent="LjfHdc1YlkoJMl0Ztrk5-1">
          <mxGeometry y="20" width="170" height="26" as="geometry" />
        </mxCell>
        <mxCell id="LjfHdc1YlkoJMl0Ztrk5-3" value="+ ShowResults(): void" style="text;strokeColor=light-dark(#000000,#512D2B);fillColor=default;align=left;verticalAlign=top;spacingLeft=4;spacingRight=4;overflow=hidden;rotatable=0;points=[[0,0.5],[1,0.5]];portConstraint=eastwest;whiteSpace=wrap;html=1;" vertex="1" parent="LjfHdc1YlkoJMl0Ztrk5-1">
          <mxGeometry y="46" width="170" height="26" as="geometry" />
        </mxCell>
        <mxCell id="LjfHdc1YlkoJMl0Ztrk5-4" value="&lt;span style=&quot;text-align: center; text-wrap-mode: nowrap;&quot;&gt;+ UpdateList(): void&lt;/span&gt;" style="text;strokeColor=light-dark(#000000,#512D2B);fillColor=default;align=left;verticalAlign=top;spacingLeft=4;spacingRight=4;overflow=hidden;rotatable=0;points=[[0,0.5],[1,0.5]];portConstraint=eastwest;whiteSpace=wrap;html=1;" vertex="1" parent="LjfHdc1YlkoJMl0Ztrk5-1">
          <mxGeometry y="72" width="170" height="26" as="geometry" />
        </mxCell>
        <mxCell id="LjfHdc1YlkoJMl0Ztrk5-5" value="" style="endArrow=none;html=1;rounded=0;entryX=0;entryY=0.5;entryDx=0;entryDy=0;exitX=1;exitY=0.5;exitDx=0;exitDy=0;" edge="1" parent="1" source="bxJik_AMvIZyw83LSy6p-135" target="LjfHdc1YlkoJMl0Ztrk5-1">
          <mxGeometry width="50" height="50" relative="1" as="geometry">
            <mxPoint x="763" y="1007" as="sourcePoint" />
            <mxPoint x="896" y="1005" as="targetPoint" />
          </mxGeometry>
        </mxCell>
        <mxCell id="LjfHdc1YlkoJMl0Ztrk5-6" value="Debts" style="swimlane;whiteSpace=wrap;html=1;fillColor=#f8cecc;strokeColor=#b85450;" vertex="1" parent="1">
          <mxGeometry x="775" y="908" width="164" height="138" as="geometry" />
        </mxCell>
        <mxCell id="LjfHdc1YlkoJMl0Ztrk5-7" value="# Debts_id: int" style="text;strokeColor=light-dark(#000000,#512D2B);fillColor=default;align=left;verticalAlign=top;spacingLeft=4;spacingRight=4;overflow=hidden;rotatable=0;points=[[0,0.5],[1,0.5]];portConstraint=eastwest;whiteSpace=wrap;html=1;" vertex="1" parent="LjfHdc1YlkoJMl0Ztrk5-6">
          <mxGeometry y="23" width="164" height="30" as="geometry" />
        </mxCell>
        <mxCell id="LjfHdc1YlkoJMl0Ztrk5-8" value="# Debts_list:&amp;nbsp;&lt;span style=&quot;background-color: transparent; color: light-dark(rgb(0, 0, 0), rgb(255, 255, 255));&quot;&gt;Debts&lt;/span&gt;&lt;span style=&quot;background-color: transparent; color: light-dark(rgb(0, 0, 0), rgb(255, 255, 255));&quot;&gt;[]&lt;/span&gt;" style="text;strokeColor=light-dark(#000000,#512D2B);fillColor=default;align=left;verticalAlign=top;spacingLeft=4;spacingRight=4;overflow=hidden;rotatable=0;points=[[0,0.5],[1,0.5]];portConstraint=eastwest;whiteSpace=wrap;html=1;" vertex="1" parent="LjfHdc1YlkoJMl0Ztrk5-6">
          <mxGeometry y="78" width="164" height="30" as="geometry" />
        </mxCell>
        <mxCell id="LjfHdc1YlkoJMl0Ztrk5-9" value="# Debts_desc: string[]" style="text;strokeColor=light-dark(#000000,#512D2B);fillColor=default;align=left;verticalAlign=top;spacingLeft=4;spacingRight=4;overflow=hidden;rotatable=0;points=[[0,0.5],[1,0.5]];portConstraint=eastwest;whiteSpace=wrap;html=1;" vertex="1" parent="LjfHdc1YlkoJMl0Ztrk5-6">
          <mxGeometry y="50" width="164" height="28" as="geometry" />
        </mxCell>
        <mxCell id="LjfHdc1YlkoJMl0Ztrk5-10" value="# removeDebtFromList()" style="text;strokeColor=light-dark(#000000,#512D2B);fillColor=default;align=left;verticalAlign=top;spacingLeft=4;spacingRight=4;overflow=hidden;rotatable=0;points=[[0,0.5],[1,0.5]];portConstraint=eastwest;whiteSpace=wrap;html=1;" vertex="1" parent="LjfHdc1YlkoJMl0Ztrk5-6">
          <mxGeometry y="108" width="164" height="30" as="geometry" />
        </mxCell>
        <mxCell id="LjfHdc1YlkoJMl0Ztrk5-11" value="" style="endArrow=none;html=1;rounded=0;entryX=0.5;entryY=0;entryDx=0;entryDy=0;exitX=0.5;exitY=1;exitDx=0;exitDy=0;" edge="1" parent="1" source="LjfHdc1YlkoJMl0Ztrk5-1" target="LjfHdc1YlkoJMl0Ztrk5-6">
          <mxGeometry width="50" height="50" relative="1" as="geometry">
            <mxPoint x="967" y="845.5" as="sourcePoint" />
            <mxPoint x="1100" y="843.5" as="targetPoint" />
          </mxGeometry>
        </mxCell>
        <mxCell id="LjfHdc1YlkoJMl0Ztrk5-12" value="" style="endArrow=none;html=1;rounded=0;entryX=0;entryY=0.5;entryDx=0;entryDy=0;exitX=1;exitY=0.75;exitDx=0;exitDy=0;" edge="1" parent="1" source="LjfHdc1YlkoJMl0Ztrk5-16" target="LjfHdc1YlkoJMl0Ztrk5-25">
          <mxGeometry width="50" height="50" relative="1" as="geometry">
            <mxPoint x="1361" y="988" as="sourcePoint" />
            <mxPoint x="1494" y="986" as="targetPoint" />
          </mxGeometry>
        </mxCell>
        <mxCell id="LjfHdc1YlkoJMl0Ztrk5-13" value="" style="endArrow=none;html=1;rounded=0;entryX=0;entryY=0.5;entryDx=0;entryDy=0;exitX=1;exitY=0.25;exitDx=0;exitDy=0;" edge="1" parent="1" source="LjfHdc1YlkoJMl0Ztrk5-1" target="LjfHdc1YlkoJMl0Ztrk5-23">
          <mxGeometry width="50" height="50" relative="1" as="geometry">
            <mxPoint x="1039" y="791" as="sourcePoint" />
            <mxPoint x="1172" y="789" as="targetPoint" />
          </mxGeometry>
        </mxCell>
        <mxCell id="LjfHdc1YlkoJMl0Ztrk5-14" value="" style="endArrow=none;html=1;rounded=0;exitX=1;exitY=0.5;exitDx=0;exitDy=0;entryX=0;entryY=0.5;entryDx=0;entryDy=0;" edge="1" parent="1" source="LjfHdc1YlkoJMl0Ztrk5-30" target="LjfHdc1YlkoJMl0Ztrk5-22">
          <mxGeometry width="50" height="50" relative="1" as="geometry">
            <mxPoint x="1118" y="716" as="sourcePoint" />
            <mxPoint x="1158" y="721" as="targetPoint" />
          </mxGeometry>
        </mxCell>
        <mxCell id="LjfHdc1YlkoJMl0Ztrk5-15" value="" style="endArrow=none;html=1;rounded=0;exitX=1;exitY=0.5;exitDx=0;exitDy=0;entryX=0;entryY=0.25;entryDx=0;entryDy=0;" edge="1" parent="1" source="LjfHdc1YlkoJMl0Ztrk5-29" target="LjfHdc1YlkoJMl0Ztrk5-37">
          <mxGeometry width="50" height="50" relative="1" as="geometry">
            <mxPoint x="1201" y="670" as="sourcePoint" />
            <mxPoint x="1438" y="668" as="targetPoint" />
          </mxGeometry>
        </mxCell>
        <mxCell id="LjfHdc1YlkoJMl0Ztrk5-16" value="Tnt_Payment_Scr" style="swimlane;whiteSpace=wrap;html=1;startSize=23;fillColor=#f8cecc;strokeColor=#b85450;" vertex="1" parent="1">
          <mxGeometry x="1022" y="837" width="170" height="71" as="geometry">
            <mxRectangle x="200" y="320" width="120" height="30" as="alternateBounds" />
          </mxGeometry>
        </mxCell>
        <mxCell id="LjfHdc1YlkoJMl0Ztrk5-17" value="+ display(): void" style="text;strokeColor=light-dark(#000000,#512D2B);fillColor=default;align=left;verticalAlign=top;spacingLeft=4;spacingRight=4;overflow=hidden;rotatable=0;points=[[0,0.5],[1,0.5]];portConstraint=eastwest;whiteSpace=wrap;html=1;" vertex="1" parent="LjfHdc1YlkoJMl0Ztrk5-16">
          <mxGeometry y="20" width="170" height="26" as="geometry" />
        </mxCell>
        <mxCell id="LjfHdc1YlkoJMl0Ztrk5-18" value="&lt;span style=&quot;text-align: center; text-wrap-mode: nowrap;&quot;&gt;+ SelectPayment()&lt;/span&gt;" style="text;strokeColor=light-dark(#000000,#512D2B);fillColor=default;align=left;verticalAlign=top;spacingLeft=4;spacingRight=4;overflow=hidden;rotatable=0;points=[[0,0.5],[1,0.5]];portConstraint=eastwest;whiteSpace=wrap;html=1;" vertex="1" parent="LjfHdc1YlkoJMl0Ztrk5-16">
          <mxGeometry y="46" width="170" height="26" as="geometry" />
        </mxCell>
        <mxCell id="LjfHdc1YlkoJMl0Ztrk5-19" value="" style="endArrow=none;html=1;rounded=0;entryX=0;entryY=0.5;entryDx=0;entryDy=0;exitX=1;exitY=0.75;exitDx=0;exitDy=0;" edge="1" parent="1" source="LjfHdc1YlkoJMl0Ztrk5-1" target="LjfHdc1YlkoJMl0Ztrk5-16">
          <mxGeometry width="50" height="50" relative="1" as="geometry">
            <mxPoint x="1048" y="952" as="sourcePoint" />
            <mxPoint x="1048" y="1005" as="targetPoint" />
          </mxGeometry>
        </mxCell>
        <mxCell id="LjfHdc1YlkoJMl0Ztrk5-20" value="Tnt_PaymentComp_Scr" style="swimlane;whiteSpace=wrap;html=1;startSize=23;fillColor=#f8cecc;strokeColor=#b85450;" vertex="1" parent="1">
          <mxGeometry x="1264" y="707" width="170" height="201" as="geometry">
            <mxRectangle x="200" y="320" width="120" height="30" as="alternateBounds" />
          </mxGeometry>
        </mxCell>
        <mxCell id="LjfHdc1YlkoJMl0Ztrk5-21" value="+ display(): void" style="text;strokeColor=light-dark(#000000,#512D2B);fillColor=default;align=left;verticalAlign=top;spacingLeft=4;spacingRight=4;overflow=hidden;rotatable=0;points=[[0,0.5],[1,0.5]];portConstraint=eastwest;whiteSpace=wrap;html=1;" vertex="1" parent="LjfHdc1YlkoJMl0Ztrk5-20">
          <mxGeometry y="20" width="170" height="26" as="geometry" />
        </mxCell>
        <mxCell id="LjfHdc1YlkoJMl0Ztrk5-22" value="&lt;span style=&quot;text-align: center; text-wrap-mode: nowrap;&quot;&gt;+ FillForm(): void&lt;/span&gt;" style="text;strokeColor=light-dark(#000000,#512D2B);fillColor=default;align=left;verticalAlign=top;spacingLeft=4;spacingRight=4;overflow=hidden;rotatable=0;points=[[0,0.5],[1,0.5]];portConstraint=eastwest;whiteSpace=wrap;html=1;" vertex="1" parent="LjfHdc1YlkoJMl0Ztrk5-20">
          <mxGeometry y="46" width="170" height="26" as="geometry" />
        </mxCell>
        <mxCell id="LjfHdc1YlkoJMl0Ztrk5-23" value="&lt;span style=&quot;text-align: center; text-wrap-mode: nowrap;&quot;&gt;+ SubmitButton(): void&lt;/span&gt;" style="text;strokeColor=light-dark(#000000,#512D2B);fillColor=default;align=left;verticalAlign=top;spacingLeft=4;spacingRight=4;overflow=hidden;rotatable=0;points=[[0,0.5],[1,0.5]];portConstraint=eastwest;whiteSpace=wrap;html=1;" vertex="1" parent="LjfHdc1YlkoJMl0Ztrk5-20">
          <mxGeometry y="72" width="170" height="26" as="geometry" />
        </mxCell>
        <mxCell id="LjfHdc1YlkoJMl0Ztrk5-24" value="&lt;span style=&quot;text-align: center; text-wrap-mode: nowrap;&quot;&gt;+ CheckForm()&lt;/span&gt;" style="text;strokeColor=light-dark(#000000,#512D2B);fillColor=default;align=left;verticalAlign=top;spacingLeft=4;spacingRight=4;overflow=hidden;rotatable=0;points=[[0,0.5],[1,0.5]];portConstraint=eastwest;whiteSpace=wrap;html=1;" vertex="1" parent="LjfHdc1YlkoJMl0Ztrk5-20">
          <mxGeometry y="98" width="170" height="26" as="geometry" />
        </mxCell>
        <mxCell id="LjfHdc1YlkoJMl0Ztrk5-25" value="&lt;span style=&quot;text-align: center; text-wrap-mode: nowrap;&quot;&gt;+ AddData(): void&lt;/span&gt;" style="text;strokeColor=light-dark(#000000,#512D2B);fillColor=default;align=left;verticalAlign=top;spacingLeft=4;spacingRight=4;overflow=hidden;rotatable=0;points=[[0,0.5],[1,0.5]];portConstraint=eastwest;whiteSpace=wrap;html=1;" vertex="1" parent="LjfHdc1YlkoJMl0Ztrk5-20">
          <mxGeometry y="124" width="170" height="26" as="geometry" />
        </mxCell>
        <mxCell id="LjfHdc1YlkoJMl0Ztrk5-26" value="&lt;span style=&quot;text-align: center; text-wrap-mode: nowrap;&quot;&gt;+ ConfMessage(): void&lt;/span&gt;" style="text;strokeColor=light-dark(#000000,#512D2B);fillColor=default;align=left;verticalAlign=top;spacingLeft=4;spacingRight=4;overflow=hidden;rotatable=0;points=[[0,0.5],[1,0.5]];portConstraint=eastwest;whiteSpace=wrap;html=1;" vertex="1" parent="LjfHdc1YlkoJMl0Ztrk5-20">
          <mxGeometry y="150" width="170" height="26" as="geometry" />
        </mxCell>
        <mxCell id="LjfHdc1YlkoJMl0Ztrk5-27" value="&lt;span style=&quot;text-align: center; text-wrap-mode: nowrap;&quot;&gt;+ ErrorMessage(): void&lt;/span&gt;" style="text;strokeColor=light-dark(#000000,#512D2B);fillColor=default;align=left;verticalAlign=top;spacingLeft=4;spacingRight=4;overflow=hidden;rotatable=0;points=[[0,0.5],[1,0.5]];portConstraint=eastwest;whiteSpace=wrap;html=1;" vertex="1" parent="LjfHdc1YlkoJMl0Ztrk5-20">
          <mxGeometry y="176" width="170" height="26" as="geometry" />
        </mxCell>
        <mxCell id="LjfHdc1YlkoJMl0Ztrk5-28" value="Manage_Notif" style="swimlane;whiteSpace=wrap;html=1;startSize=23;fillColor=#f8cecc;strokeColor=#b85450;" vertex="1" parent="1">
          <mxGeometry x="921" y="641" width="170" height="98" as="geometry">
            <mxRectangle x="200" y="320" width="120" height="30" as="alternateBounds" />
          </mxGeometry>
        </mxCell>
        <mxCell id="LjfHdc1YlkoJMl0Ztrk5-29" value="+ createNotif(): void" style="text;strokeColor=light-dark(#000000,#512D2B);fillColor=default;align=left;verticalAlign=top;spacingLeft=4;spacingRight=4;overflow=hidden;rotatable=0;points=[[0,0.5],[1,0.5]];portConstraint=eastwest;whiteSpace=wrap;html=1;" vertex="1" parent="LjfHdc1YlkoJMl0Ztrk5-28">
          <mxGeometry y="20" width="170" height="26" as="geometry" />
        </mxCell>
        <mxCell id="LjfHdc1YlkoJMl0Ztrk5-30" value="&lt;span style=&quot;text-align: center; text-wrap-mode: nowrap;&quot;&gt;+ loadNotifications()&lt;/span&gt;" style="text;strokeColor=light-dark(#000000,#512D2B);fillColor=default;align=left;verticalAlign=top;spacingLeft=4;spacingRight=4;overflow=hidden;rotatable=0;points=[[0,0.5],[1,0.5]];portConstraint=eastwest;whiteSpace=wrap;html=1;" vertex="1" parent="LjfHdc1YlkoJMl0Ztrk5-28">
          <mxGeometry y="46" width="170" height="26" as="geometry" />
        </mxCell>
        <mxCell id="LjfHdc1YlkoJMl0Ztrk5-31" value="&lt;span style=&quot;text-align: center; text-wrap-mode: nowrap;&quot;&gt;+ showresults(): void&lt;/span&gt;" style="text;strokeColor=light-dark(#000000,#512D2B);fillColor=default;align=left;verticalAlign=top;spacingLeft=4;spacingRight=4;overflow=hidden;rotatable=0;points=[[0,0.5],[1,0.5]];portConstraint=eastwest;whiteSpace=wrap;html=1;" vertex="1" parent="LjfHdc1YlkoJMl0Ztrk5-28">
          <mxGeometry y="72" width="170" height="26" as="geometry" />
        </mxCell>
        <mxCell id="LjfHdc1YlkoJMl0Ztrk5-32" value="" style="endArrow=none;html=1;rounded=0;entryX=0;entryY=0.5;entryDx=0;entryDy=0;exitX=1;exitY=0.5;exitDx=0;exitDy=0;" edge="1" parent="1" source="bxJik_AMvIZyw83LSy6p-77" target="LjfHdc1YlkoJMl0Ztrk5-29">
          <mxGeometry width="50" height="50" relative="1" as="geometry">
            <mxPoint x="634" y="-57" as="sourcePoint" />
            <mxPoint x="828" y="481" as="targetPoint" />
          </mxGeometry>
        </mxCell>
        <mxCell id="LjfHdc1YlkoJMl0Ztrk5-33" value="" style="endArrow=none;html=1;rounded=0;entryX=0;entryY=0.5;entryDx=0;entryDy=0;exitX=1;exitY=0.75;exitDx=0;exitDy=0;" edge="1" parent="1" source="bxJik_AMvIZyw83LSy6p-10" target="LjfHdc1YlkoJMl0Ztrk5-30">
          <mxGeometry width="50" height="50" relative="1" as="geometry">
            <mxPoint x="675" y="461" as="sourcePoint" />
            <mxPoint x="808" y="459" as="targetPoint" />
          </mxGeometry>
        </mxCell>
        <mxCell id="LjfHdc1YlkoJMl0Ztrk5-37" value="&lt;b&gt;Mngr_Notif_Scr&lt;/b&gt;" style="swimlane;fontStyle=0;childLayout=stackLayout;horizontal=1;startSize=26;fillColor=#f8cecc;horizontalStack=0;resizeParent=1;resizeParentMax=0;resizeLast=0;collapsible=1;marginBottom=0;whiteSpace=wrap;html=1;strokeColor=#b85450;" vertex="1" parent="1">
          <mxGeometry x="1525" y="610" width="174" height="258" as="geometry" />
        </mxCell>
        <mxCell id="LjfHdc1YlkoJMl0Ztrk5-38" value="&lt;span style=&quot;font-size: 11px; text-align: center; text-wrap-mode: nowrap; background-color: rgb(255, 255, 255);&quot;&gt;+ display(): void&lt;/span&gt;" style="text;strokeColor=light-dark(#000000,#512D2B);fillColor=default;align=left;verticalAlign=top;spacingLeft=4;spacingRight=4;overflow=hidden;rotatable=0;points=[[0,0.5],[1,0.5]];portConstraint=eastwest;whiteSpace=wrap;html=1;" vertex="1" parent="LjfHdc1YlkoJMl0Ztrk5-37">
          <mxGeometry y="26" width="174" height="28" as="geometry" />
        </mxCell>
        <mxCell id="LjfHdc1YlkoJMl0Ztrk5-39" value="&lt;span style=&quot;font-size: 11px; text-align: center; text-wrap-mode: nowrap; background-color: rgb(255, 255, 255);&quot;&gt;+ NewNotifButton(): void&lt;/span&gt;" style="text;strokeColor=light-dark(#000000,#512D2B);fillColor=default;align=left;verticalAlign=top;spacingLeft=4;spacingRight=4;overflow=hidden;rotatable=0;points=[[0,0.5],[1,0.5]];portConstraint=eastwest;whiteSpace=wrap;html=1;" vertex="1" parent="LjfHdc1YlkoJMl0Ztrk5-37">
          <mxGeometry y="54" width="174" height="28" as="geometry" />
        </mxCell>
        <mxCell id="LjfHdc1YlkoJMl0Ztrk5-40" value="&lt;span style=&quot;text-align: center; text-wrap-mode: nowrap;&quot;&gt;+ DisplayAnswerForm(): void&lt;/span&gt;" style="text;strokeColor=light-dark(#000000,#512D2B);fillColor=default;align=left;verticalAlign=top;spacingLeft=4;spacingRight=4;overflow=hidden;rotatable=0;points=[[0,0.5],[1,0.5]];portConstraint=eastwest;whiteSpace=wrap;html=1;" vertex="1" parent="LjfHdc1YlkoJMl0Ztrk5-37">
          <mxGeometry y="82" width="174" height="28" as="geometry" />
        </mxCell>
        <mxCell id="LjfHdc1YlkoJMl0Ztrk5-41" value="&lt;span style=&quot;text-align: center; text-wrap-mode: nowrap;&quot;&gt;+ AnswerButton(): void&lt;/span&gt;" style="text;strokeColor=light-dark(#000000,#512D2B);fillColor=default;align=left;verticalAlign=top;spacingLeft=4;spacingRight=4;overflow=hidden;rotatable=0;points=[[0,0.5],[1,0.5]];portConstraint=eastwest;whiteSpace=wrap;html=1;" vertex="1" parent="LjfHdc1YlkoJMl0Ztrk5-37">
          <mxGeometry y="110" width="174" height="30" as="geometry" />
        </mxCell>
        <mxCell id="LjfHdc1YlkoJMl0Ztrk5-42" value="+&amp;nbsp;&lt;span style=&quot;text-align: center; text-wrap-mode: nowrap;&quot;&gt;ChooseComplaint()&lt;/span&gt;" style="text;strokeColor=light-dark(#000000,#512D2B);fillColor=default;align=left;verticalAlign=top;spacingLeft=4;spacingRight=4;overflow=hidden;rotatable=0;points=[[0,0.5],[1,0.5]];portConstraint=eastwest;whiteSpace=wrap;html=1;" vertex="1" parent="LjfHdc1YlkoJMl0Ztrk5-37">
          <mxGeometry y="140" width="174" height="30" as="geometry" />
        </mxCell>
        <mxCell id="LjfHdc1YlkoJMl0Ztrk5-43" value="&lt;span style=&quot;text-align: center; text-wrap-mode: nowrap;&quot;&gt;+ ComplaintsButton(): void&lt;/span&gt;" style="text;strokeColor=light-dark(#000000,#512D2B);fillColor=default;align=left;verticalAlign=top;spacingLeft=4;spacingRight=4;overflow=hidden;rotatable=0;points=[[0,0.5],[1,0.5]];portConstraint=eastwest;whiteSpace=wrap;html=1;" vertex="1" parent="LjfHdc1YlkoJMl0Ztrk5-37">
          <mxGeometry y="170" width="174" height="30" as="geometry" />
        </mxCell>
        <mxCell id="LjfHdc1YlkoJMl0Ztrk5-44" value="&lt;span style=&quot;font-size: 11px; text-align: center; text-wrap-mode: nowrap; background-color: rgb(255, 255, 255);&quot;&gt;+ CreateNotif()&lt;/span&gt;" style="text;strokeColor=light-dark(#000000,#512D2B);fillColor=default;align=left;verticalAlign=top;spacingLeft=4;spacingRight=4;overflow=hidden;rotatable=0;points=[[0,0.5],[1,0.5]];portConstraint=eastwest;whiteSpace=wrap;html=1;" vertex="1" parent="LjfHdc1YlkoJMl0Ztrk5-37">
          <mxGeometry y="200" width="174" height="30" as="geometry" />
        </mxCell>
        <mxCell id="LjfHdc1YlkoJMl0Ztrk5-45" value="&lt;span style=&quot;text-align: center; text-wrap-mode: nowrap;&quot;&gt;+ StartSearch()&lt;/span&gt;" style="text;strokeColor=light-dark(#000000,#512D2B);fillColor=default;align=left;verticalAlign=top;spacingLeft=4;spacingRight=4;overflow=hidden;rotatable=0;points=[[0,0.5],[1,0.5]];portConstraint=eastwest;whiteSpace=wrap;html=1;" vertex="1" parent="LjfHdc1YlkoJMl0Ztrk5-37">
          <mxGeometry y="230" width="174" height="28" as="geometry" />
        </mxCell>
        <mxCell id="LjfHdc1YlkoJMl0Ztrk5-46" value="Manage_Lost_Found" style="swimlane;whiteSpace=wrap;html=1;fillColor=#f8cecc;strokeColor=#b85450;startSize=23;" vertex="1" parent="1">
          <mxGeometry x="653" y="1219" width="182" height="100" as="geometry" />
        </mxCell>
        <mxCell id="LjfHdc1YlkoJMl0Ztrk5-47" value="&lt;span style=&quot;font-size: 11px; text-align: center; text-wrap-mode: nowrap; background-color: rgb(255, 255, 255);&quot;&gt;+ LoadList()&lt;/span&gt;" style="text;strokeColor=light-dark(#000000,#512D2B);fillColor=default;align=left;verticalAlign=top;spacingLeft=4;spacingRight=4;overflow=hidden;rotatable=0;points=[[0,0.5],[1,0.5]];portConstraint=eastwest;whiteSpace=wrap;html=1;" vertex="1" parent="LjfHdc1YlkoJMl0Ztrk5-46">
          <mxGeometry y="23" width="182" height="26" as="geometry" />
        </mxCell>
        <mxCell id="LjfHdc1YlkoJMl0Ztrk5-48" value="&lt;span style=&quot;font-size: 11px; text-align: center; text-wrap-mode: nowrap; background-color: rgb(255, 255, 255);&quot;&gt;+ ShowResults()&lt;/span&gt;" style="text;strokeColor=light-dark(#000000,#512D2B);fillColor=default;align=left;verticalAlign=top;spacingLeft=4;spacingRight=4;overflow=hidden;rotatable=0;points=[[0,0.5],[1,0.5]];portConstraint=eastwest;whiteSpace=wrap;html=1;" vertex="1" parent="LjfHdc1YlkoJMl0Ztrk5-46">
          <mxGeometry y="49" width="182" height="26" as="geometry" />
        </mxCell>
        <mxCell id="LjfHdc1YlkoJMl0Ztrk5-49" value="&lt;span style=&quot;text-align: center; text-wrap-mode: nowrap;&quot;&gt;+ UpdateList(): void&lt;/span&gt;" style="text;strokeColor=light-dark(#000000,#512D2B);fillColor=default;align=left;verticalAlign=top;spacingLeft=4;spacingRight=4;overflow=hidden;rotatable=0;points=[[0,0.5],[1,0.5]];portConstraint=eastwest;whiteSpace=wrap;html=1;" vertex="1" parent="LjfHdc1YlkoJMl0Ztrk5-46">
          <mxGeometry y="75" width="182" height="26" as="geometry" />
        </mxCell>
        <mxCell id="LjfHdc1YlkoJMl0Ztrk5-50" value="Tnt_LostFound_Scr" style="swimlane;whiteSpace=wrap;html=1;startSize=23;fillColor=#f8cecc;strokeColor=#b85450;" vertex="1" parent="1">
          <mxGeometry x="897" y="1221" width="170" height="73" as="geometry">
            <mxRectangle x="200" y="320" width="120" height="30" as="alternateBounds" />
          </mxGeometry>
        </mxCell>
        <mxCell id="LjfHdc1YlkoJMl0Ztrk5-51" value="+ display(): void" style="text;strokeColor=light-dark(#000000,#512D2B);fillColor=default;align=left;verticalAlign=top;spacingLeft=4;spacingRight=4;overflow=hidden;rotatable=0;points=[[0,0.5],[1,0.5]];portConstraint=eastwest;whiteSpace=wrap;html=1;" vertex="1" parent="LjfHdc1YlkoJMl0Ztrk5-50">
          <mxGeometry y="20" width="170" height="26" as="geometry" />
        </mxCell>
        <mxCell id="LjfHdc1YlkoJMl0Ztrk5-52" value="&lt;span style=&quot;text-align: center; text-wrap-mode: nowrap;&quot;&gt;+ NewEntryButton(): void&lt;/span&gt;" style="text;strokeColor=light-dark(#000000,#512D2B);fillColor=default;align=left;verticalAlign=top;spacingLeft=4;spacingRight=4;overflow=hidden;rotatable=0;points=[[0,0.5],[1,0.5]];portConstraint=eastwest;whiteSpace=wrap;html=1;" vertex="1" parent="LjfHdc1YlkoJMl0Ztrk5-50">
          <mxGeometry y="47" width="170" height="26" as="geometry" />
        </mxCell>
        <mxCell id="LjfHdc1YlkoJMl0Ztrk5-53" value="LostFound" style="swimlane;whiteSpace=wrap;html=1;fillColor=#f8cecc;strokeColor=#b85450;" vertex="1" parent="1">
          <mxGeometry x="662" y="1355" width="164" height="146" as="geometry" />
        </mxCell>
        <mxCell id="LjfHdc1YlkoJMl0Ztrk5-54" value="# LostFound_id: int" style="text;strokeColor=light-dark(#000000,#512D2B);fillColor=default;align=left;verticalAlign=top;spacingLeft=4;spacingRight=4;overflow=hidden;rotatable=0;points=[[0,0.5],[1,0.5]];portConstraint=eastwest;whiteSpace=wrap;html=1;" vertex="1" parent="LjfHdc1YlkoJMl0Ztrk5-53">
          <mxGeometry y="23" width="164" height="30" as="geometry" />
        </mxCell>
        <mxCell id="LjfHdc1YlkoJMl0Ztrk5-55" value="# LostFound_list:&amp;nbsp;&lt;br&gt;&lt;div&gt;&lt;span style=&quot;background-color: transparent; color: light-dark(rgb(0, 0, 0), rgb(255, 255, 255));&quot;&gt;LostFound&lt;/span&gt;&lt;span style=&quot;background-color: transparent; color: light-dark(rgb(0, 0, 0), rgb(255, 255, 255));&quot;&gt;[]&lt;/span&gt;&lt;/div&gt;" style="text;strokeColor=light-dark(#000000,#512D2B);fillColor=default;align=left;verticalAlign=top;spacingLeft=4;spacingRight=4;overflow=hidden;rotatable=0;points=[[0,0.5],[1,0.5]];portConstraint=eastwest;whiteSpace=wrap;html=1;" vertex="1" parent="LjfHdc1YlkoJMl0Ztrk5-53">
          <mxGeometry y="78" width="164" height="42" as="geometry" />
        </mxCell>
        <mxCell id="LjfHdc1YlkoJMl0Ztrk5-56" value="# LostFound_desc: string[]" style="text;strokeColor=light-dark(#000000,#512D2B);fillColor=default;align=left;verticalAlign=top;spacingLeft=4;spacingRight=4;overflow=hidden;rotatable=0;points=[[0,0.5],[1,0.5]];portConstraint=eastwest;whiteSpace=wrap;html=1;" vertex="1" parent="LjfHdc1YlkoJMl0Ztrk5-53">
          <mxGeometry y="50" width="164" height="28" as="geometry" />
        </mxCell>
        <mxCell id="LjfHdc1YlkoJMl0Ztrk5-57" value="# addLostFoundToList()" style="text;strokeColor=light-dark(#000000,#512D2B);fillColor=default;align=left;verticalAlign=top;spacingLeft=4;spacingRight=4;overflow=hidden;rotatable=0;points=[[0,0.5],[1,0.5]];portConstraint=eastwest;whiteSpace=wrap;html=1;" vertex="1" parent="LjfHdc1YlkoJMl0Ztrk5-53">
          <mxGeometry y="116" width="164" height="30" as="geometry" />
        </mxCell>
        <mxCell id="LjfHdc1YlkoJMl0Ztrk5-58" value="Tnt_LostFound_Entry_Scr" style="swimlane;whiteSpace=wrap;html=1;startSize=23;fillColor=#f8cecc;strokeColor=#b85450;" vertex="1" parent="1">
          <mxGeometry x="1129" y="1224" width="170" height="173" as="geometry">
            <mxRectangle x="200" y="320" width="120" height="30" as="alternateBounds" />
          </mxGeometry>
        </mxCell>
        <mxCell id="LjfHdc1YlkoJMl0Ztrk5-59" value="+ display(): void" style="text;strokeColor=light-dark(#000000,#512D2B);fillColor=default;align=left;verticalAlign=top;spacingLeft=4;spacingRight=4;overflow=hidden;rotatable=0;points=[[0,0.5],[1,0.5]];portConstraint=eastwest;whiteSpace=wrap;html=1;" vertex="1" parent="LjfHdc1YlkoJMl0Ztrk5-58">
          <mxGeometry y="20" width="170" height="26" as="geometry" />
        </mxCell>
        <mxCell id="LjfHdc1YlkoJMl0Ztrk5-60" value="&lt;span style=&quot;text-align: center; text-wrap-mode: nowrap;&quot;&gt;+ FillForm(): void&lt;/span&gt;" style="text;strokeColor=light-dark(#000000,#512D2B);fillColor=default;align=left;verticalAlign=top;spacingLeft=4;spacingRight=4;overflow=hidden;rotatable=0;points=[[0,0.5],[1,0.5]];portConstraint=eastwest;whiteSpace=wrap;html=1;" vertex="1" parent="LjfHdc1YlkoJMl0Ztrk5-58">
          <mxGeometry y="46" width="170" height="26" as="geometry" />
        </mxCell>
        <mxCell id="LjfHdc1YlkoJMl0Ztrk5-61" value="&lt;span style=&quot;text-align: center; text-wrap-mode: nowrap;&quot;&gt;+ SubmitButton(): void&lt;/span&gt;" style="text;strokeColor=light-dark(#000000,#512D2B);fillColor=default;align=left;verticalAlign=top;spacingLeft=4;spacingRight=4;overflow=hidden;rotatable=0;points=[[0,0.5],[1,0.5]];portConstraint=eastwest;whiteSpace=wrap;html=1;" vertex="1" parent="LjfHdc1YlkoJMl0Ztrk5-58">
          <mxGeometry y="72" width="170" height="26" as="geometry" />
        </mxCell>
        <mxCell id="LjfHdc1YlkoJMl0Ztrk5-62" value="&lt;span style=&quot;text-align: center; text-wrap-mode: nowrap;&quot;&gt;+ AddData(): void&lt;/span&gt;" style="text;strokeColor=light-dark(#000000,#512D2B);fillColor=default;align=left;verticalAlign=top;spacingLeft=4;spacingRight=4;overflow=hidden;rotatable=0;points=[[0,0.5],[1,0.5]];portConstraint=eastwest;whiteSpace=wrap;html=1;" vertex="1" parent="LjfHdc1YlkoJMl0Ztrk5-58">
          <mxGeometry y="98" width="170" height="26" as="geometry" />
        </mxCell>
        <mxCell id="LjfHdc1YlkoJMl0Ztrk5-63" value="&lt;span style=&quot;text-align: center; text-wrap-mode: nowrap;&quot;&gt;+ CheckForm()&lt;/span&gt;" style="text;strokeColor=light-dark(#000000,#512D2B);fillColor=default;align=left;verticalAlign=top;spacingLeft=4;spacingRight=4;overflow=hidden;rotatable=0;points=[[0,0.5],[1,0.5]];portConstraint=eastwest;whiteSpace=wrap;html=1;" vertex="1" parent="LjfHdc1YlkoJMl0Ztrk5-58">
          <mxGeometry y="122" width="170" height="26" as="geometry" />
        </mxCell>
        <mxCell id="LjfHdc1YlkoJMl0Ztrk5-64" value="&lt;span style=&quot;text-align: center; text-wrap-mode: nowrap;&quot;&gt;+ ErrorMessage(): void&lt;/span&gt;" style="text;strokeColor=light-dark(#000000,#512D2B);fillColor=default;align=left;verticalAlign=top;spacingLeft=4;spacingRight=4;overflow=hidden;rotatable=0;points=[[0,0.5],[1,0.5]];portConstraint=eastwest;whiteSpace=wrap;html=1;" vertex="1" parent="LjfHdc1YlkoJMl0Ztrk5-58">
          <mxGeometry y="148" width="170" height="26" as="geometry" />
        </mxCell>
        <mxCell id="LjfHdc1YlkoJMl0Ztrk5-65" value="&lt;span style=&quot;font-weight: 700;&quot;&gt;Tenant_Notif_Scr&lt;/span&gt;" style="swimlane;fontStyle=0;childLayout=stackLayout;horizontal=1;startSize=26;fillColor=#f8cecc;horizontalStack=0;resizeParent=1;resizeParentMax=0;resizeLast=0;collapsible=1;marginBottom=0;whiteSpace=wrap;html=1;strokeColor=#b85450;" vertex="1" parent="1">
          <mxGeometry x="959" y="1091" width="154" height="78" as="geometry" />
        </mxCell>
        <mxCell id="LjfHdc1YlkoJMl0Ztrk5-66" value="+ field: type" style="text;strokeColor=light-dark(#000000,#512D2B);fillColor=default;align=left;verticalAlign=top;spacingLeft=4;spacingRight=4;overflow=hidden;rotatable=0;points=[[0,0.5],[1,0.5]];portConstraint=eastwest;whiteSpace=wrap;html=1;" vertex="1" parent="LjfHdc1YlkoJMl0Ztrk5-65">
          <mxGeometry y="26" width="154" height="26" as="geometry" />
        </mxCell>
        <mxCell id="LjfHdc1YlkoJMl0Ztrk5-67" value="+ field: type" style="text;strokeColor=light-dark(#000000,#512D2B);fillColor=default;align=left;verticalAlign=top;spacingLeft=4;spacingRight=4;overflow=hidden;rotatable=0;points=[[0,0.5],[1,0.5]];portConstraint=eastwest;whiteSpace=wrap;html=1;" vertex="1" parent="LjfHdc1YlkoJMl0Ztrk5-65">
          <mxGeometry y="52" width="154" height="26" as="geometry" />
        </mxCell>
        <mxCell id="LjfHdc1YlkoJMl0Ztrk5-71" value="" style="endArrow=none;html=1;rounded=0;entryX=0;entryY=0.5;entryDx=0;entryDy=0;exitX=1;exitY=0.5;exitDx=0;exitDy=0;" edge="1" parent="1" source="bxJik_AMvIZyw83LSy6p-140" target="LjfHdc1YlkoJMl0Ztrk5-46">
          <mxGeometry width="50" height="50" relative="1" as="geometry">
            <mxPoint x="648" y="1216" as="sourcePoint" />
            <mxPoint x="720" y="1170" as="targetPoint" />
          </mxGeometry>
        </mxCell>
        <mxCell id="LjfHdc1YlkoJMl0Ztrk5-72" value="" style="endArrow=none;html=1;rounded=0;entryX=0.5;entryY=0;entryDx=0;entryDy=0;exitX=0.5;exitY=1;exitDx=0;exitDy=0;" edge="1" parent="1" source="LjfHdc1YlkoJMl0Ztrk5-46" target="LjfHdc1YlkoJMl0Ztrk5-53">
          <mxGeometry width="50" height="50" relative="1" as="geometry">
            <mxPoint x="710" y="1365" as="sourcePoint" />
            <mxPoint x="805" y="1365" as="targetPoint" />
          </mxGeometry>
        </mxCell>
        <mxCell id="LjfHdc1YlkoJMl0Ztrk5-73" value="" style="endArrow=none;html=1;rounded=0;entryX=0;entryY=0.5;entryDx=0;entryDy=0;exitX=1;exitY=0.5;exitDx=0;exitDy=0;" edge="1" parent="1" source="LjfHdc1YlkoJMl0Ztrk5-48" target="LjfHdc1YlkoJMl0Ztrk5-51">
          <mxGeometry width="50" height="50" relative="1" as="geometry">
            <mxPoint x="924" y="1400" as="sourcePoint" />
            <mxPoint x="1004" y="1431" as="targetPoint" />
          </mxGeometry>
        </mxCell>
        <mxCell id="LjfHdc1YlkoJMl0Ztrk5-74" value="" style="endArrow=none;html=1;rounded=0;entryX=0;entryY=0.5;entryDx=0;entryDy=0;exitX=1;exitY=0.5;exitDx=0;exitDy=0;" edge="1" parent="1" source="LjfHdc1YlkoJMl0Ztrk5-50" target="LjfHdc1YlkoJMl0Ztrk5-60">
          <mxGeometry width="50" height="50" relative="1" as="geometry">
            <mxPoint x="1084" y="1273" as="sourcePoint" />
            <mxPoint x="1164" y="1304" as="targetPoint" />
          </mxGeometry>
        </mxCell>
        <mxCell id="LjfHdc1YlkoJMl0Ztrk5-75" value="" style="endArrow=none;html=1;rounded=0;entryX=0;entryY=0.5;entryDx=0;entryDy=0;exitX=1;exitY=0.5;exitDx=0;exitDy=0;" edge="1" parent="1" source="LjfHdc1YlkoJMl0Ztrk5-49" target="LjfHdc1YlkoJMl0Ztrk5-58">
          <mxGeometry width="50" height="50" relative="1" as="geometry">
            <mxPoint x="940" y="1308" as="sourcePoint" />
            <mxPoint x="1020" y="1339" as="targetPoint" />
          </mxGeometry>
        </mxCell>
        <mxCell id="LjfHdc1YlkoJMl0Ztrk5-76" value="Manage_Notif" style="swimlane;whiteSpace=wrap;html=1;startSize=23;fillColor=#f8cecc;strokeColor=#b85450;" vertex="1" parent="1">
          <mxGeometry x="694" y="1074" width="205" height="107" as="geometry">
            <mxRectangle x="200" y="320" width="120" height="30" as="alternateBounds" />
          </mxGeometry>
        </mxCell>
        <mxCell id="LjfHdc1YlkoJMl0Ztrk5-77" value="&lt;span style=&quot;text-align: center; text-wrap-mode: nowrap;&quot;&gt;+ CreateNotif()&lt;/span&gt;" style="text;strokeColor=light-dark(#000000,#512D2B);fillColor=default;align=left;verticalAlign=top;spacingLeft=4;spacingRight=4;overflow=hidden;rotatable=0;points=[[0,0.5],[1,0.5]];portConstraint=eastwest;whiteSpace=wrap;html=1;" vertex="1" parent="LjfHdc1YlkoJMl0Ztrk5-76">
          <mxGeometry y="23" width="205" height="28" as="geometry" />
        </mxCell>
        <mxCell id="LjfHdc1YlkoJMl0Ztrk5-78" value="&lt;span style=&quot;text-align: center; text-wrap-mode: nowrap;&quot;&gt;+ LoadNotifications()&lt;/span&gt;" style="text;strokeColor=light-dark(#000000,#512D2B);fillColor=default;align=left;verticalAlign=top;spacingLeft=4;spacingRight=4;overflow=hidden;rotatable=0;points=[[0,0.5],[1,0.5]];portConstraint=eastwest;whiteSpace=wrap;html=1;" vertex="1" parent="LjfHdc1YlkoJMl0Ztrk5-76">
          <mxGeometry y="51" width="205" height="28" as="geometry" />
        </mxCell>
        <mxCell id="LjfHdc1YlkoJMl0Ztrk5-79" value="+ ShowResults(): void" style="text;strokeColor=light-dark(#000000,#512D2B);fillColor=default;align=left;verticalAlign=top;spacingLeft=4;spacingRight=4;overflow=hidden;rotatable=0;points=[[0,0.5],[1,0.5]];portConstraint=eastwest;whiteSpace=wrap;html=1;" vertex="1" parent="LjfHdc1YlkoJMl0Ztrk5-76">
          <mxGeometry y="79" width="205" height="28" as="geometry" />
        </mxCell>
        <mxCell id="LjfHdc1YlkoJMl0Ztrk5-80" value="" style="endArrow=none;html=1;rounded=0;entryX=1;entryY=1;entryDx=0;entryDy=0;exitX=0;exitY=0;exitDx=0;exitDy=0;" edge="1" parent="1" source="LjfHdc1YlkoJMl0Ztrk5-58" target="LjfHdc1YlkoJMl0Ztrk5-76">
          <mxGeometry width="50" height="50" relative="1" as="geometry">
            <mxPoint x="1434" y="1274" as="sourcePoint" />
            <mxPoint x="1491" y="1321" as="targetPoint" />
          </mxGeometry>
        </mxCell>
        <mxCell id="LjfHdc1YlkoJMl0Ztrk5-81" value="" style="endArrow=none;html=1;rounded=0;entryX=0;entryY=0.5;entryDx=0;entryDy=0;exitX=1;exitY=0.5;exitDx=0;exitDy=0;" edge="1" parent="1" source="LjfHdc1YlkoJMl0Ztrk5-76" target="LjfHdc1YlkoJMl0Ztrk5-65">
          <mxGeometry width="50" height="50" relative="1" as="geometry">
            <mxPoint x="1524" y="1475" as="sourcePoint" />
            <mxPoint x="1581" y="1522" as="targetPoint" />
          </mxGeometry>
        </mxCell>
        <mxCell id="LjfHdc1YlkoJMl0Ztrk5-82" value="" style="endArrow=none;html=1;rounded=0;entryX=0;entryY=0;entryDx=0;entryDy=0;exitX=0.75;exitY=1;exitDx=0;exitDy=0;" edge="1" parent="1" source="bxJik_AMvIZyw83LSy6p-72" target="LjfHdc1YlkoJMl0Ztrk5-76">
          <mxGeometry width="50" height="50" relative="1" as="geometry">
            <mxPoint x="580" y="19" as="sourcePoint" />
            <mxPoint x="775" y="1007" as="targetPoint" />
          </mxGeometry>
        </mxCell>
      </root>
    </mxGraphModel>
  </diagram>
</mxfile>
